<?xml version="1.0" encoding="UTF-8" standalone="no"?>
<!-- Created with Inkscape (http://www.inkscape.org/) -->

<svg
   xmlns:dc="http://purl.org/dc/elements/1.1/"
   xmlns:cc="http://creativecommons.org/ns#"
   xmlns:rdf="http://www.w3.org/1999/02/22-rdf-syntax-ns#"
   xmlns:svg="http://www.w3.org/2000/svg"
   xmlns="http://www.w3.org/2000/svg"
   xmlns:sodipodi="http://sodipodi.sourceforge.net/DTD/sodipodi-0.dtd"
   xmlns:inkscape="http://www.inkscape.org/namespaces/inkscape"
   width="300"
   height="300"
   viewBox="0 0 79.374998 79.375002"
   version="1.1"
   id="svg8"
   sodipodi:docname="umbrella.svg"
   inkscape:export-filename="/Users/charlesfrye/classes/psych101d-internal/lec/03_models/img/umbrella.png"
   inkscape:export-xdpi="101.27793"
   inkscape:export-ydpi="101.27793"
   inkscape:version="0.92.2 5c3e80d, 2017-08-06">
  <defs
     id="defs2" />
  <sodipodi:namedview
     id="base"
     pagecolor="#ffffff"
     bordercolor="#666666"
     borderopacity="1.0"
     inkscape:pageopacity="0.0"
     inkscape:pageshadow="2"
     inkscape:zoom="0.35"
     inkscape:cx="-111.42857"
     inkscape:cy="560"
     inkscape:document-units="mm"
     inkscape:current-layer="layer1"
     showgrid="false"
     units="px"
     inkscape:window-width="950"
     inkscape:window-height="771"
     inkscape:window-x="0"
     inkscape:window-y="1"
     inkscape:window-maximized="0" />
  <metadata
     id="metadata5">
    <rdf:RDF>
      <cc:Work
         rdf:about="">
        <dc:format>image/svg+xml</dc:format>
        <dc:type
           rdf:resource="http://purl.org/dc/dcmitype/StillImage" />
        <dc:title />
      </cc:Work>
    </rdf:RDF>
  </metadata>
  <g
     inkscape:label="Layer 1"
     inkscape:groupmode="layer"
     id="layer1"
     transform="translate(0,-217.62498)">
    <path
       style="fill:#000000;fill-opacity:1;stroke:none;stroke-width:2.16653562;stroke-miterlimit:4;stroke-dasharray:none;stroke-opacity:1"
       id="path4623"
       d="m 8.5401167,271.84856 c 0.5426309,-1.22002 0.9846235,-2.52303 1.4239671,-3.82376 0.5198542,-1.45584 1.0791162,-2.88015 1.6567492,-4.28969 0.36784,-0.82905 0.800776,-1.58772 1.365719,-2.14711 1.60767,-1.55191 2.968522,-2.76667 4.800766,-3.1349 1.380797,-0.19709 2.772565,-0.22751 4.158738,-0.16921 1.480049,0.11249 2.942114,0.48313 4.397426,0.87043 0.924623,0.22909 1.845475,0.50806 2.738603,0.92477 0.469156,0.13594 0.828337,0.54089 1.222952,0.8896 0.300839,0.22434 0.448901,0.66624 0.694452,0.98291 0.178161,0.31528 0.335585,0.65401 0.477541,1.00507 -0.275646,-1.44186 0.02931,0.0703 -2.64734,1.9124 -0.03673,0.0254 0.01145,-0.11597 0.01497,-0.17459 0.01519,-0.25983 0.01233,-0.52248 0.01343,-0.78278 0.0017,-0.85604 4.58e-4,-1.71202 0.0024,-2.5681 0.0097,-0.91986 -0.02341,-1.84114 0.0086,-2.76021 0.04787,-0.60689 0.102259,-1.21197 0.230023,-1.79583 0.09819,-0.45489 0.232963,-0.89045 0.432135,-1.27161 1.020198,-1.05199 2.284472,-1.96947 3.298959,-2.76972 0.161337,-0.12738 0.349186,-0.16762 0.520842,-0.26299 0.862752,-0.38335 1.770391,-0.37748 2.659319,-0.55277 0.957421,-0.20914 1.921132,-0.34244 2.88766,-0.42042 0.593239,-0.077 1.211425,0.0158 1.729099,0.46154 0.451895,0.35115 0.855512,0.80988 1.256116,1.27016 0.397476,0.51709 0.824269,0.9851 1.221086,1.50257 0.173977,0.11439 0.132315,0.49948 0.302965,0.5972 0.0691,0.01 -0.01651,0.002 0.03451,-0.003 -0.871743,0.66684 -1.724209,1.38869 -2.615232,2.00046 -0.04679,0.032 0.0207,-0.14671 0.02387,-0.22117 0.01013,-0.23765 -0.0077,-0.3573 -0.02761,-0.59457 -0.09041,-0.83699 -0.115184,-1.68261 -0.131611,-2.52798 -0.01585,-1.1004 -0.01365,-2.2011 -0.01629,-3.30167 0.0062,-0.85227 0.140683,-1.69554 0.437088,-2.43466 0.880427,-1.59712 2.642818,-2.57123 3.675772,-3.41625 0.875512,-0.51978 1.797538,-0.79292 2.727375,-1.02011 1.813172,-0.39275 3.636698,-0.67467 5.460188,-0.95703 1.968704,-0.3624 3.948467,-0.5489 5.930523,-0.66586 1.26593,-0.11597 2.536758,0.0773 3.763577,0.53018 0.473685,0.15907 0.919247,0.3758 1.349946,0.69476 1.420103,1.04454 -1.968494,2.12676 -2.421624,2.44138 -0.172656,-0.30387 -0.386351,-0.53278 -0.612651,-0.74733 -0.444677,-0.50682 -0.876479,-1.03779 -1.330331,-1.5282 -0.742135,-1.0038 -1.598745,-1.81349 -2.456492,-2.59548 -0.817409,-0.7561 -1.684646,-1.39103 -2.58035,-1.9292 -0.948247,-0.54399 -1.944473,-0.83741 -2.935141,-1.16596 -1.247053,-0.35046 -2.511572,-0.57404 -3.77076,-0.82135 -1.713108,-0.44212 -3.456751,-0.60654 -5.19114,-0.78972 -1.133691,-0.11693 -2.270065,-0.15685 -3.406311,-0.16794 -0.842668,0.12928 -1.660735,0.41674 -2.467585,0.77768 -1.044986,0.41262 -2.079497,0.87724 -3.122244,1.30114 -1.294018,0.57955 -2.600652,1.09876 -3.887349,1.71155 -0.645396,0.19931 -1.260251,0.55093 -1.896893,0.79501 -0.583167,0.22371 -1.109446,0.42023 -1.675721,0.72867 -0.795077,0.37963 -1.59262,0.81342 -2.336386,1.37316 -0.10772,0.0764 -0.216695,0.14956 -0.323182,0.22941 -0.106399,0.0798 -0.209076,0.16984 -0.315347,0.25001 -1.723334,1.30124 3.232751,-2.8394 1.512618,-1.23787 -0.109812,0.10235 -0.216695,0.21072 -0.32506,0.31623 -0.61849,0.60366 -1.211751,1.25729 -1.811452,1.89803 -0.439509,0.4289 -0.870619,0.86558 -1.290817,1.33292 -0.38512,0.48214 -0.793573,0.89381 -1.138778,1.44059 -0.403067,0.67379 -0.830515,1.30907 -1.226269,1.99258 -0.429404,0.61491 -0.828311,1.26755 -1.181239,1.97587 -0.328642,0.48176 -0.512131,1.10149 -0.776056,1.64615 -0.240181,0.48841 -0.499615,0.95145 -0.760411,1.41974 -0.429347,0.84457 -0.866883,1.68183 -1.327488,2.49176 -0.441205,0.70842 -0.858817,1.43366 -1.215294,2.23526 -0.154732,0.35131 -0.284848,0.71095 -0.467249,1.03032 -0.08962,0.31306 -0.217906,0.59536 -0.344389,0.87965 -0.08464,0.48202 -0.294272,0.88161 -0.420065,1.33711 -0.135201,0.44256 -0.260098,0.89077 -0.415371,1.32009 -0.14293,0.42951 -0.280814,0.85313 -0.403287,1.29718 -0.09867,0.38395 -0.173735,0.78652 -0.235246,1.18726 -0.03301,0.30673 -0.11045,0.61291 -0.113467,0.92487 0.02136,0.2519 -0.01674,0.46813 -0.102942,0.68164 -0.03754,0.14163 -0.05238,0.28581 -0.06421,0.43569 -0.01057,0.35685 -0.0084,0.7125 -0.02962,1.06872 -0.0196,0.19836 -0.01652,0.39817 -0.01189,0.5976 0,0 -2.6998832,1.99587 -2.6998832,1.99587 v 0 c -0.00506,-0.22307 -0.00859,-0.44614 -6.407e-4,-0.66918 0.044612,-0.33683 0.025829,-0.67692 0.021579,-1.01898 -0.0021,-0.17522 -0.00418,-0.36766 0.036795,-0.53224 0.02202,-0.27598 0.1406611,-0.32532 0.1424888,-0.56807 -0.00771,-0.3618 0.04776,-0.67568 0.083806,-1.03225 0.085964,-0.41798 0.1558106,-0.84125 0.2191169,-1.26699 0.078302,-0.20089 0.1538729,-0.43521 0.2036372,-0.65328 0.021359,-0.0938 0.01123,-0.20121 0.040252,-0.29056 0.039613,-0.12199 0.182168,-0.14354 0.1673489,-0.32428 0.04928,-0.24779 0.1376004,-0.39694 0.2056189,-0.62888 0.038028,-0.1296 0.073788,-0.34703 0.1189278,-0.46808 0.02737,-0.0732 0.068217,-0.13435 0.102325,-0.20152 0.027216,-0.15495 0.064936,-0.40857 0.1173204,-0.55318 0.067138,-0.18537 0.198441,-0.36535 0.253675,-0.55797 0.02292,-0.0799 0.02114,-0.17048 0.03173,-0.2554 0.06229,-0.33793 0.21141,-0.58803 0.3361,-0.88015 0.06401,-0.40942 0.06069,-0.218 0.196481,-0.43078 0.123222,-0.19329 0.127582,-0.51611 0.274906,-0.68842 0.232491,-0.48262 0.426436,-1.00281 0.693599,-1.45149 0.08099,-0.13594 0.182851,-0.24399 0.265794,-0.37742 0.09248,-0.14893 0.173052,-0.31243 0.259565,-0.46846 0.485602,-0.75794 0.902711,-1.62063 1.311683,-2.4653 0.148081,-0.26205 0.280738,-0.57562 0.439592,-0.82198 0.03415,-0.0529 0.08905,-0.0738 0.120557,-0.12991 0.08059,-0.14386 0.08599,-0.35721 0.183688,-0.48706 0.384543,-0.44975 0.396793,-1.16156 0.802438,-1.59516 0.335935,-0.74219 0.723262,-1.42187 1.167969,-2.033 0.21806,-0.31592 0.37665,-0.6766 0.586221,-1.00339 0.15002,-0.23384 0.288805,-0.40603 0.452348,-0.6201 0.07031,-0.109 0.127208,-0.23417 0.1908,-0.35131 0.21348,-0.399 0.448969,-0.83374 0.747512,-1.10957 0.06159,-0.057 0.13476,-0.0859 0.194279,-0.14734 0.06373,-0.0656 0.11481,-0.15336 0.172215,-0.23004 0.334559,-0.52083 -0.04276,0.0254 0.352069,-0.41697 0.07295,-0.0814 0.131523,-0.18726 0.203197,-0.27091 0.235279,-0.27504 0.518399,-0.41624 0.744623,-0.70931 0.619303,-0.60483 1.1857,-1.3185 1.817037,-1.90071 0.402406,-0.43306 0.245045,-0.28835 0.690702,-0.66491 1.28276,-1.0839 2.538255,-2.2371 3.880719,-3.16222 0.759748,-0.4964 1.535238,-0.94679 2.331599,-1.30738 1.171433,-0.56871 2.382817,-0.95183 3.560651,-1.49427 1.292755,-0.59235 2.59703,-1.13146 3.894457,-1.70211 1.048626,-0.44662 2.095723,-0.90053 3.146711,-1.33565 0.822831,-0.35216 1.66646,-0.61741 2.526647,-0.67549 1.12384,0.0355 2.246645,0.10964 3.367132,0.24335 1.739528,0.22213 3.48569,0.397 5.210794,0.79727 1.27013,0.24462 2.548475,0.44766 3.801832,0.83598 1.011408,0.32517 2.027273,0.6343 2.989732,1.20523 0.898894,0.56148 1.758966,1.2423 2.58016,2.01235 0.868125,0.79298 1.736421,1.5981 2.502199,2.59214 0.454294,0.48544 0.893803,0.99873 1.346951,1.48597 0.240143,0.23353 0.466939,0.48728 0.658866,0.80176 -0.877283,0.70164 -1.797829,1.3014 -2.631841,2.10494 -0.148368,0.1429 0.326467,0.46338 0.0086,0.20247 -0.02726,-0.0222 -0.05483,-0.044 -0.08222,-0.0662 -0.399832,-0.30324 -0.832299,-0.47682 -1.265981,-0.65395 -1.194975,-0.42143 -2.420088,-0.61243 -3.651467,-0.49668 -1.973382,0.10868 -3.943263,0.30894 -5.902756,0.67204 -1.835953,0.29183 -3.673037,0.58132 -5.494039,1.03193 -0.933835,0.26617 -1.866616,0.58028 -2.731821,1.16942 4.404281,-3.72379 2.304055,-2.12816 1.438023,-1.01935 -0.346203,0.63313 -0.505004,1.41578 -0.535464,2.21856 -0.0017,1.09556 -8.17e-4,2.19137 0.01718,3.28671 0.01872,0.82696 0.04278,1.65553 0.136434,2.47339 0.01035,0.10013 0.100255,0.89131 0.06309,0.92749 -1.948436,1.89752 -1.895717,3.31425 -2.728599,2.24857 -0.133615,-0.19614 -0.174131,-0.4431 -0.296611,-0.64368 -0.377763,-0.52371 -0.791359,-0.9929 -1.189333,-1.48381 -0.399105,-0.42926 -0.791122,-0.87442 -1.23739,-1.20007 -0.511751,-0.32767 -1.062256,-0.3591 -1.614058,-0.29024 -0.954545,0.0773 -1.905311,0.21927 -2.851134,0.42133 -0.891804,0.16224 -1.807339,0.19487 -2.653975,0.67502 -1.024388,0.56757 -2.209972,1.73151 1.85848,-1.6702 0.118862,-0.0995 -0.234731,0.20628 -0.354683,0.30293 -0.04741,0.0383 -0.09735,0.0694 -0.146034,0.10424 -0.297392,0.17777 -0.375912,0.64321 -0.508725,1.03137 -0.109129,0.57241 -0.243345,1.12778 -0.267399,1.73059 -0.0929,0.90094 -0.0079,1.8252 -0.03732,2.73302 0.0044,0.8505 0.0075,1.70096 0.01872,2.55133 0.0026,0.25286 0.04261,0.9698 0.0066,1.00364 -2.624854,2.46378 -2.07668,3.52113 -2.71856,2.19454 -0.109592,-0.32298 -0.242425,-0.63227 -0.41124,-0.8985 -0.221288,-0.31401 -0.386598,-0.70179 -0.667495,-0.91742 -0.355608,-0.35913 -0.727768,-0.65077 -1.150575,-0.81592 -0.876864,-0.39269 -1.771491,-0.69349 -2.675954,-0.92294 -1.439132,-0.38971 -2.885396,-0.75974 -4.352198,-0.83313 -1.388164,-0.0336 -2.784419,7.3e-4 -4.161791,0.27219 -0.454105,0.12864 -0.881781,0.27218 -1.313829,0.51449 -0.113621,0.0637 -0.440665,0.29754 -0.336882,0.20533 0.665046,-0.59057 3.245491,-2.78087 2.024159,-1.7022 -0.620791,0.43331 -1.03893,1.18295 -1.449772,1.96342 -0.59422,1.39975 -1.160518,2.82077 -1.694832,4.27011 -0.420774,1.28774 -0.842011,2.58073 -1.345018,3.80703 0,0 -2.760072,1.77049 -2.760072,1.77049 z"
       inkscape:connector-curvature="0" />
    <path
       style="fill:#000000;fill-opacity:1;stroke:none;stroke-width:2.16653562;stroke-miterlimit:4;stroke-dasharray:none;stroke-opacity:1"
       id="path4625"
       d="m 33.351049,252.48324 c 1.149524,0.82467 2.247392,1.781 3.348008,2.73153 1.858689,1.61579 3.726553,3.2087 5.577551,4.84281 1.5327,1.40627 3.097086,2.73879 4.597152,4.21696 0.941736,0.99375 1.896261,1.95449 2.728771,3.13855 0.580439,0.84105 1.172997,1.66338 1.767119,2.48466 0.269977,0.52847 0.657372,0.86375 0.994686,1.27906 0.103734,0.14988 0.201457,0.32805 0.268456,0.51804 0.07883,-0.0254 0.154974,0.44444 0.15984,0.37222 0.08696,0.006 0.176201,0.33141 0.22104,0.46012 0.05989,0.0159 0.02779,-8.2e-4 0.09017,0.0722 0,0 -2.582638,2.31961 -2.582638,2.31961 v 0 c -0.08288,-0.10552 -0.03281,-0.0377 -0.144823,-0.2104 -0.05721,-0.13403 -0.08876,-0.26743 -0.182454,-0.35337 -0.08108,-0.1597 -0.09898,-0.33537 -0.200533,-0.47663 -0.06165,-0.1353 -0.110978,-0.28517 -0.199981,-0.38844 -0.350063,-0.40746 -0.687062,-0.83009 -0.975393,-1.33251 -0.591869,-0.82138 -1.163452,-1.67128 -1.744328,-2.50827 -0.82734,-1.14648 -1.745015,-2.13235 -2.670192,-3.10864 -1.473056,-1.49909 -3.020308,-2.83661 -4.5358,-4.2438 -1.856612,-1.6208 -3.710254,-3.24993 -5.585458,-4.82557 -1.115843,-0.90905 -2.226123,-1.86722 -3.427142,-2.5282 0,0 2.495929,-2.45979 2.495929,-2.45979 z"
       inkscape:connector-curvature="0" />
    <path
       style="fill:#3b7ea1;fill-opacity:1;stroke:none;stroke-width:0.82020831;stroke-miterlimit:4;stroke-dasharray:none;stroke-opacity:1"
       id="path5222"
       d="m 43.254414,221.11522 c 0.119014,0.99339 0.210301,1.98616 0.250446,2.98597 0.015,0.67339 0.01392,1.34691 0.01741,2.02042 0,0 -1.838047,0.93343 -1.838047,0.93343 v 0 c 0.02148,-0.67725 0.03955,-1.35476 0.02662,-2.03244 -0.02447,-0.996 -0.09986,-1.99054 -0.298604,-2.96875 0,0 1.842162,-0.93863 1.842162,-0.93863 z"
       inkscape:connector-curvature="0" />
    <path
       style="fill:#3b7ea1;fill-opacity:1;stroke:none;stroke-width:0.82020831;stroke-miterlimit:4;stroke-dasharray:none;stroke-opacity:1"
       id="path5224"
       d="m 33.469212,222.12024 c -0.0074,0.93509 -0.125646,1.86905 -0.295421,2.78772 -0.07122,0.70587 -0.214929,1.39854 -0.334113,2.09695 0,0 -1.864519,0.89886 -1.864519,0.89886 v 0 c 0.136478,-0.48409 5.3e-4,0.0584 0.0843,-0.53416 0.075,-0.52995 0.327779,-1.03016 0.29846,-1.58034 0.186045,-0.8933 0.303459,-1.81328 0.260363,-2.72593 0,0 1.850925,-0.9431 1.850925,-0.9431 z"
       inkscape:connector-curvature="0" />
    <path
       style="fill:#3b7ea1;fill-opacity:1;stroke:none;stroke-width:0.82020831;stroke-miterlimit:4;stroke-dasharray:none;stroke-opacity:1"
       id="path5226"
       d="m 25.531712,225.03066 c -0.0049,0.98786 -0.145779,1.97044 -0.306147,2.94364 -0.173543,0.78111 -0.378335,1.55754 -0.527705,2.34369 -0.149219,0.78536 0.04585,0.0774 -0.15341,0.73827 -0.02223,0.0748 -0.04445,0.14954 -0.06668,0.22431 0,0 -1.870735,0.88513 -1.870735,0.88513 v 0 c 0.0249,-0.0814 0.0498,-0.16282 0.0747,-0.24424 0.246106,-0.52418 0.05439,-0.0428 0.199508,-0.73336 0.1642,-0.78134 0.372612,-1.55611 0.549907,-2.33539 0.150138,-0.95024 0.299938,-1.91525 0.249637,-2.87896 0,0 1.850924,-0.94309 1.850924,-0.94309 z"
       inkscape:connector-curvature="0" />
    <path
       style="fill:#3b7ea1;fill-opacity:1;stroke:none;stroke-width:0.82020831;stroke-miterlimit:4;stroke-dasharray:none;stroke-opacity:1"
       id="path5228"
       d="m 14.63118,225.41725 c -0.42466,1.93734 -0.670034,3.9126 -0.912511,5.88011 -0.04322,0.26586 -0.08645,0.53172 -0.12967,0.79758 0,0 -1.76218,0.85715 -1.76218,0.85715 v 0 c 0.05695,-0.26888 0.113892,-0.53776 0.170837,-0.80665 0.282851,-1.93884 0.516097,-3.88459 0.785674,-5.82479 0,0 1.84785,-0.9034 1.84785,-0.9034 z"
       inkscape:connector-curvature="0" />
    <path
       style="fill:#3b7ea1;fill-opacity:1;stroke:none;stroke-width:0.82020831;stroke-miterlimit:4;stroke-dasharray:none;stroke-opacity:1"
       id="path5230"
       d="m 12.302545,237.99524 c 0.01318,0.99971 0.126345,2.01474 0.381833,2.98277 0.100763,0.36834 0.243839,0.72166 0.363765,1.08356 0,0 -1.81088,0.98904 -1.81088,0.98904 v 0 c -0.09684,-0.37486 -0.209909,-0.74477 -0.31417,-1.11767 -0.25355,-0.97804 -0.3839,-1.99023 -0.471472,-2.9946 0,0 1.850924,-0.9431 1.850924,-0.9431 z"
       inkscape:connector-curvature="0" />
    <path
       style="fill:#3b7ea1;fill-opacity:1;stroke:none;stroke-width:0.82020831;stroke-miterlimit:4;stroke-dasharray:none;stroke-opacity:1"
       id="path5232"
       d="m 8.0224002,225.63162 c -0.2458286,0.85152 -0.2466708,1.72848 -0.3208057,2.60149 -0.044998,0.52989 -0.1210583,0.92607 -0.2077799,1.43834 -0.076109,0.3696 -0.1463914,0.7403 -0.2053815,1.113 0,0 -1.8680023,0.89876 -1.8680023,0.89876 v 0 c 0.1135902,-0.37558 0.1801797,-0.76117 0.2780676,-1.14118 0.1391576,-0.60412 0.1968085,-0.76433 0.2485099,-1.42221 0.067772,-0.86238 0.039477,-1.73297 0.2159357,-2.58654 0,0 1.8594562,-0.90166 1.8594562,-0.90166 z"
       inkscape:connector-curvature="0" />
    <path
       style="fill:#3b7ea1;fill-opacity:1;stroke:none;stroke-width:0.82020831;stroke-miterlimit:4;stroke-dasharray:none;stroke-opacity:1"
       id="path5234"
       d="m 53.304201,220.90395 c 0.01077,0.60201 -0.06894,1.20965 -0.03803,1.81114 0.01342,0.26075 0.06557,0.5181 0.09257,0.7778 0.0299,0.28764 0.03238,0.57849 0.07812,0.86404 0.04713,0.29422 0.133249,0.58085 0.199876,0.87127 0.168294,0.57839 0.286727,1.16347 0.484061,1.73241 0,0 -1.78004,0.9756 -1.78004,0.9756 v 0 c -0.163624,-0.59044 -0.26584,-1.19114 -0.413544,-1.786 -0.0733,-0.29702 -0.166907,-0.58975 -0.219911,-0.89106 -0.04947,-0.2812 -0.05262,-0.56869 -0.08675,-0.85216 -0.03204,-0.26618 -0.08997,-0.52928 -0.111739,-0.79648 -0.0479,-0.58789 0.0062,-1.18379 -0.03803,-1.7724 0,0 1.833404,-0.93416 1.833404,-0.93416 z"
       inkscape:connector-curvature="0" />
    <path
       style="fill:#3b7ea1;fill-opacity:1;stroke:none;stroke-width:0.82020831;stroke-miterlimit:4;stroke-dasharray:none;stroke-opacity:1"
       id="path5236"
       d="m 68.618443,221.61415 c -0.22475,0.75249 -0.243078,1.542 -0.257207,2.32087 0,0 -1.817804,0.92257 -1.817804,0.92257 v 0 c 0.0108,-0.7841 0.03332,-1.57869 0.202634,-2.34649 0,0 1.872377,-0.89695 1.872377,-0.89695 z"
       inkscape:connector-curvature="0" />
    <path
       style="fill:#3b7ea1;fill-opacity:1;stroke:none;stroke-width:0.82020831;stroke-miterlimit:4;stroke-dasharray:none;stroke-opacity:1"
       id="path5238"
       d="m 73.76348,219.22936 c 0.632518,1.36441 1.251662,2.74272 1.998655,4.04857 0.397666,0.72384 0.914985,1.36704 1.403307,2.02653 0,0 -1.797957,1.05028 -1.797957,1.05028 v 0 c -0.399039,-0.72015 -0.903343,-1.37855 -1.293008,-2.10484 -0.733256,-1.32217 -1.37242,-2.69508 -2.112815,-4.01436 0,0 1.801818,-1.00618 1.801818,-1.00618 z"
       inkscape:connector-curvature="0" />
    <path
       style="fill:#3b7ea1;fill-opacity:1;stroke:none;stroke-width:0.82020831;stroke-miterlimit:4;stroke-dasharray:none;stroke-opacity:1"
       id="path5240"
       d="m 61.779628,223.97233 c -0.08313,1.1793 0.121568,2.34649 0.288885,3.50905 0.127368,0.5512 0.176512,1.11485 0.261671,1.67268 0,0 -1.840855,0.95575 -1.840855,0.95575 v 0 c -0.0026,-0.57362 -0.08353,-1.14203 -0.160215,-1.70963 -0.176671,-1.15529 -0.396092,-2.31211 -0.40041,-3.48476 0,0 1.850924,-0.94309 1.850924,-0.94309 z"
       inkscape:connector-curvature="0" />
    <path
       style="fill:#3b7ea1;fill-opacity:1;stroke:none;stroke-width:0.82020831;stroke-miterlimit:4;stroke-dasharray:none;stroke-opacity:1"
       id="path5242"
       d="m 39.77886,222.93707 c -0.240472,1.08399 -0.285911,2.20074 -0.403688,3.30322 -0.153852,1.36769 -0.238935,2.7488 -0.429599,4.11164 -0.02175,0.12094 -0.04348,0.24188 -0.06522,0.36282 0,0 -1.841717,0.88906 -1.841717,0.88906 v 0 c 0.03115,-0.12129 0.06231,-0.24259 0.09346,-0.36389 0.108836,-0.60146 0.154726,-1.20049 0.226192,-1.80732 0.05823,-0.49441 0.150826,-0.98461 0.200578,-1.47995 0.02792,-0.27792 0.0372,-0.55739 0.05579,-0.83609 0.08945,-1.09561 0.135181,-2.19489 0.291822,-3.28254 0,0 1.872377,-0.89695 1.872377,-0.89695 z"
       inkscape:connector-curvature="0" />
    <path
       style="fill:#3b7ea1;fill-opacity:1;stroke:none;stroke-width:0.82020831;stroke-miterlimit:4;stroke-dasharray:none;stroke-opacity:1"
       id="path5244"
       d="m 21.769518,232.87665 c -0.121499,0.98992 -0.291438,1.97184 -0.452527,2.95593 -0.02386,0.17274 -0.03147,0.3458 -0.03661,0.51975 0,0 -1.948524,0.79632 -1.948524,0.79632 v 0 c 0.02877,0.0136 0.06128,0.0606 0.08632,0.041 0.03856,-0.0303 -0.05305,-0.41303 0.05337,-0.455 0.168401,-0.98262 0.443753,-1.94815 0.460941,-2.95454 0,0 1.837025,-0.90341 1.837025,-0.90341 z"
       inkscape:connector-curvature="0" />
    <path
       style="fill:#3b7ea1;fill-opacity:1;stroke:none;stroke-width:0.82020831;stroke-miterlimit:4;stroke-dasharray:none;stroke-opacity:1"
       id="path5246"
       d="m 7.271082,247.30897 c -0.063822,1.52437 -0.064914,3.05192 -0.038045,4.57734 -0.00292,0.51896 0.012158,1.03844 0.044441,1.55642 0,0 -1.8549562,0.94515 -1.8549562,0.94515 v 0 c 0.031246,-0.53316 0.047403,-1.06763 0.044441,-1.60171 0.02617,-1.51247 0.027272,-3.02722 -0.038045,-4.53857 0,0 1.8421641,-0.93863 1.8421642,-0.93863 z"
       inkscape:connector-curvature="0" />
    <path
       style="fill:#3b7ea1;fill-opacity:1;stroke:none;stroke-width:0.82020831;stroke-miterlimit:4;stroke-dasharray:none;stroke-opacity:1"
       id="path5248"
       d="m 49.075247,220.32147 c -0.06963,1.66886 -0.06098,3.33958 -0.06398,5.00951 0.003,0.66578 0.01799,1.33125 0.04618,1.99639 0,0 -1.806548,0.92048 -1.806548,0.92048 v 0 c 0.02766,-0.68084 0.04315,-1.36199 0.04618,-2.04345 -0.003,-1.64818 0.0066,-3.29723 -0.06398,-4.9443 0,0 1.842162,-0.93863 1.842162,-0.93863 z"
       inkscape:connector-curvature="0" />
    <path
       style="fill:#3b7ea1;fill-opacity:1;stroke:none;stroke-width:0.82020831;stroke-miterlimit:4;stroke-dasharray:none;stroke-opacity:1"
       id="path5250"
       d="m 62.791149,232.24621 c -0.01423,0.16052 -0.04923,0.32054 -0.04274,0.48156 0.0081,0.2014 0.06253,0.39834 0.08631,0.59849 0.03258,0.27411 0.04394,0.55067 0.08273,0.82397 0.124748,0.87891 0.36468,1.73489 0.569253,2.59706 0.04881,0.41416 0.177716,0.80538 0.314458,1.19583 0,0 -1.811158,0.99133 -1.811158,0.99133 v 0 c -0.108442,-0.41356 -0.204517,-0.82959 -0.235659,-1.25797 -0.287459,-1.50471 -0.752134,-2.99324 -0.822661,-4.52861 0,0 1.859455,-0.90166 1.859455,-0.90166 z"
       inkscape:connector-curvature="0" />
    <path
       style="fill:#3b7ea1;fill-opacity:1;stroke:none;stroke-width:0.82020831;stroke-miterlimit:4;stroke-dasharray:none;stroke-opacity:1"
       id="path5254"
       d="m 72.401678,235.85634 c 0.06633,0.39173 0.161523,0.776 0.207632,1.1706 0,0 -1.828142,0.9576 -1.828142,0.9576 v 0 c -0.04207,-0.38454 -0.103272,-0.76687 -0.205692,-1.14063 0,0 1.826202,-0.98757 1.826202,-0.98757 z"
       inkscape:connector-curvature="0" />
    <path
       style="fill:#3b7ea1;fill-opacity:1;stroke:none;stroke-width:0.82020831;stroke-miterlimit:4;stroke-dasharray:none;stroke-opacity:1"
       id="path5256"
       d="m 72.135203,242.79319 c -0.06777,1.94939 0.330284,3.87105 0.653521,5.78482 0.312885,2.00093 0.793858,3.96909 1.132787,5.96518 0,0 -1.749142,0.92063 -1.749142,0.92063 v 0 c -0.19838,-2.02988 -0.630119,-4.02288 -0.998154,-6.02679 -0.3555,-1.87525 -0.819367,-3.75518 -0.861431,-5.66949 0,0 1.822419,-0.97435 1.822419,-0.97435 z"
       inkscape:connector-curvature="0" />
    <path
       style="fill:#3b7ea1;fill-opacity:1;stroke:none;stroke-width:0.82020831;stroke-miterlimit:4;stroke-dasharray:none;stroke-opacity:1"
       id="path5258"
       d="m 72.217001,230.5932 c 0.196953,0.50033 0.307271,1.0512 0.644663,1.48133 0,0 -1.784586,1.05563 -1.784586,1.05563 v 0 c -0.312737,-0.45751 -0.425587,-0.99989 -0.641781,-1.50429 0,0 1.781704,-1.03267 1.781704,-1.03267 z"
       inkscape:connector-curvature="0" />
    <path
       style="fill:#3b7ea1;fill-opacity:1;stroke:none;stroke-width:0.82020831;stroke-miterlimit:4;stroke-dasharray:none;stroke-opacity:1"
       id="path5260"
       d="m 14.758313,219.36878 c 0.322264,0.20253 0.451145,0.5433 0.620523,0.86332 0.457815,0.86499 -0.108377,-0.34244 0.410435,0.80811 0.11341,0.2904 0.456286,0.53637 0.482667,0.86787 0.01942,0.24396 -0.08757,0.44871 -0.06499,0.69281 0.02335,0.0525 0.0467,0.10507 0.07005,0.1576 0,0 -1.811153,1.01957 -1.811153,1.01957 v 0 c -0.03005,-0.0687 -0.06011,-0.13745 -0.09017,-0.20618 -0.08443,-0.39399 0.01903,-0.33217 0.05924,-0.68318 0.03628,-0.31662 -0.289847,-0.59176 -0.399433,-0.8537 -0.291075,-0.57021 -0.567909,-1.20071 -1.072827,-1.61402 0,0 1.795649,-1.0522 1.795649,-1.0522 z"
       inkscape:connector-curvature="0" />
    <path
       style="fill:#3b7ea1;fill-opacity:1;stroke:none;stroke-width:0.82020831;stroke-miterlimit:4;stroke-dasharray:none;stroke-opacity:1"
       id="path5262"
       d="m 5.6792021,232.54561 c -0.064407,1.55852 0.2015765,3.10295 0.4987938,4.62622 0.1395034,0.89899 0.2808999,1.79724 0.3412868,2.70547 0,0 -1.841899,0.9407 -1.841899,0.9407 v 0 c 0.042382,-0.91411 -0.079215,-1.82768 -0.2201462,-2.7289 -0.2737872,-1.5256 -0.5675908,-3.05558 -0.6114397,-4.60932 0,0 1.8334043,-0.93417 1.8334043,-0.93417 z"
       inkscape:connector-curvature="0" />
    <path
       style="fill:#3b7ea1;fill-opacity:1;stroke:none;stroke-width:0.82020831;stroke-miterlimit:4;stroke-dasharray:none;stroke-opacity:1"
       id="path5264"
       d="m 21.549822,221.75101 c -0.219103,1.50446 -0.438396,3.01037 -0.670105,4.51388 -0.08315,0.57309 -0.04724,0.3094 -0.109784,0.79077 0,0 -1.842622,0.90206 -1.842622,0.90206 v 0 c 0.09594,-0.50213 0.04103,-0.22815 0.167772,-0.8213 0.277068,-1.47396 0.486036,-2.96406 0.630095,-4.45571 0,0 1.824644,-0.9297 1.824644,-0.9297 z"
       inkscape:connector-curvature="0" />
    <path
       style="fill:#3b7ea1;fill-opacity:1;stroke:none;stroke-width:0.82020831;stroke-miterlimit:4;stroke-dasharray:none;stroke-opacity:1"
       id="path5266"
       d="m 6.7462952,220.26816 c -0.081546,0.62366 0.092707,1.21342 0.2134463,1.81626 0.032699,0.14762 0.059234,0.29415 0.072237,0.44451 0,0 -1.8602949,0.96061 -1.8602949,0.96061 v 0 c -0.00262,-0.14505 -0.010848,-0.28946 -0.036132,-0.43277 -0.106252,-0.61281 -0.2810135,-1.21651 -0.2401806,-1.84552 0,0 1.8509239,-0.94309 1.8509242,-0.94309 z"
       inkscape:connector-curvature="0" />
    <path
       style="fill:#3b7ea1;fill-opacity:1;stroke:none;stroke-width:0.82020831;stroke-miterlimit:4;stroke-dasharray:none;stroke-opacity:1"
       id="path5268"
       d="m 67.59608,247.83814 c -0.125537,1.91022 -0.0076,3.82077 0.100928,5.72837 0.06274,0.85273 0.101565,1.70688 0.173826,2.5589 0,0 -1.829673,0.93697 -1.829673,0.93697 v 0 c 0.03543,-0.87531 0.0032,-1.75085 -0.02909,-2.62588 -0.09636,-1.88675 -0.231542,-3.77039 -0.258157,-5.65973 0,0 1.842162,-0.93863 1.842162,-0.93863 z"
       inkscape:connector-curvature="0" />
    <path
       style="fill:#3b7ea1;fill-opacity:1;stroke:none;stroke-width:0.82020831;stroke-miterlimit:4;stroke-dasharray:none;stroke-opacity:1"
       id="path5270"
       d="m 73.724594,258.87509 c 0.247531,0.92056 0.417987,1.71814 0.460362,2.67878 -0.0046,1.18913 0.07475,2.37562 0.06919,3.56458 0,0 -1.782577,0.90383 -1.782577,0.90383 v 0 c 0.04143,-1.18692 -0.03679,-2.36574 -0.05822,-3.55255 -0.0667,-0.8966 -0.22294,-1.75534 -0.514958,-2.60707 0,0 1.826201,-0.98757 1.826201,-0.98757 z"
       inkscape:connector-curvature="0" />
    <path
       style="fill:#3b7ea1;fill-opacity:1;stroke:none;stroke-width:0.82020831;stroke-miterlimit:4;stroke-dasharray:none;stroke-opacity:1"
       id="path5272"
       d="m 69.187961,267.36399 c 0.0378,0.152 0.07559,0.304 0.11339,0.456 0,0 -1.771237,0.97378 -1.771237,0.97378 v 0 c -0.06436,-0.16223 -0.128717,-0.32445 -0.193077,-0.48668 0,0 1.850924,-0.9431 1.850924,-0.9431 z"
       inkscape:connector-curvature="0" />
    <path
       style="fill:#3b7ea1;fill-opacity:1;stroke:none;stroke-width:0.82020831;stroke-miterlimit:4;stroke-dasharray:none;stroke-opacity:1"
       id="path5274"
       d="m 76.596295,268.95149 c -0.02368,0.87826 -0.0013,1.75506 -0.07655,2.631 -0.02024,0.1663 -0.02676,0.33486 -0.06076,0.4989 -0.07706,0.37186 -0.210113,0.73046 -0.290565,1.1016 -0.07603,0.35073 -0.117195,0.69475 -0.14487,1.05107 0,0 -1.844773,0.92258 -1.844773,0.92258 v 0 c 0.06682,-0.91716 0.405545,-1.7745 0.54098,-2.67799 0.08657,-0.85828 0.0368,-1.72211 0.02561,-2.58406 0,0 1.850924,-0.9431 1.850924,-0.9431 z"
       inkscape:connector-curvature="0" />
    <path
       style="fill:#3b7ea1;fill-opacity:1;stroke:none;stroke-width:0.82020831;stroke-miterlimit:4;stroke-dasharray:none;stroke-opacity:1"
       id="path5276"
       d="m 69.187961,265.77649 c -0.01767,0.75023 -0.02291,1.50162 -0.01426,2.2522 -0.06616,0.71476 0.237043,1.38022 0.314243,2.08113 0.0031,0.22204 0.02373,0.4582 -0.02318,0.67657 3.4e-5,0.0212 6.9e-5,0.0424 1.03e-4,0.0636 0,0 -1.878483,0.94764 -1.878483,0.94764 v 0 c 0.0019,-0.0227 0.0036,-0.0454 0.0054,-0.0682 -0.01725,-0.21512 0.07311,-0.44018 0.05529,-0.66442 -0.02695,-0.72127 -0.336368,-1.38195 -0.295781,-2.10786 0.0085,-0.74573 0.0037,-1.49231 -0.01426,-2.23766 0,0 1.850925,-0.9431 1.850925,-0.9431 z"
       inkscape:connector-curvature="0" />
    <path
       style="fill:#3b7ea1;fill-opacity:1;stroke:none;stroke-width:0.82020831;stroke-miterlimit:4;stroke-dasharray:none;stroke-opacity:1"
       id="path5278"
       d="m 79.233368,250.53728 c -0.07283,0.76432 0.03269,1.54192 -0.0254,2.3051 -0.03196,0.42001 -0.121243,0.83371 -0.176022,1.25136 -0.142219,0.59658 -0.294572,1.2062 -0.526527,1.77754 0,0 -1.909786,0.85829 -1.909786,0.85829 v 0 c 0.196964,-0.294 0.238805,-0.60195 0.352325,-0.92951 0.396094,-1.14297 -0.0693,0.53368 0.284226,-0.82153 0.06426,-0.4093 0.158146,-0.81502 0.193159,-1.22786 0.06405,-0.75527 -0.03923,-1.523 -0.0254,-2.27922 0,0 1.833403,-0.93417 1.833403,-0.93417 z"
       inkscape:connector-curvature="0" />
    <path
       style="fill:#3b7ea1;fill-opacity:1;stroke:none;stroke-width:0.82020831;stroke-miterlimit:4;stroke-dasharray:none;stroke-opacity:1"
       id="path5280"
       d="m 78.977545,236.40774 c -0.04365,1.0668 -0.03188,2.13466 -0.03719,3.20213 0.02037,0.47754 0.0065,0.95972 0.04526,1.43638 0,0 -1.867069,0.95132 -1.867069,0.95132 v 0 c 0.03694,-0.49234 0.0263,-0.98933 0.04526,-1.4825 -0.0053,-1.05484 0.0069,-2.1101 -0.03719,-3.16423 0,0 1.850925,-0.9431 1.850925,-0.9431 z"
       inkscape:connector-curvature="0" />
  </g>
</svg>
