<?xml version="1.0" encoding="UTF-8" standalone="no"?>
<!-- Created with Inkscape (http://www.inkscape.org/) -->

<svg
   xmlns:dc="http://purl.org/dc/elements/1.1/"
   xmlns:cc="http://creativecommons.org/ns#"
   xmlns:rdf="http://www.w3.org/1999/02/22-rdf-syntax-ns#"
   xmlns:svg="http://www.w3.org/2000/svg"
   xmlns="http://www.w3.org/2000/svg"
   xmlns:sodipodi="http://sodipodi.sourceforge.net/DTD/sodipodi-0.dtd"
   xmlns:inkscape="http://www.inkscape.org/namespaces/inkscape"
   width="300"
   height="300"
   viewBox="0 0 79.374999 79.374999"
   version="1.1"
   id="svg4633"
   sodipodi:docname="umbrella_top.svg"
   inkscape:version="0.92.2 5c3e80d, 2017-08-06"
   inkscape:export-filename="/Users/charlesfrye/classes/psych101d-internal/lec/03_models/img/umbrella_top.png"
   inkscape:export-xdpi="111.72241"
   inkscape:export-ydpi="111.72241">
  <defs
     id="defs4627" />
  <sodipodi:namedview
     id="base"
     pagecolor="#ffffff"
     bordercolor="#666666"
     borderopacity="1.0"
     inkscape:pageopacity="0.0"
     inkscape:pageshadow="2"
     inkscape:zoom="1"
     inkscape:cx="-117.14286"
     inkscape:cy="245.71429"
     inkscape:document-units="mm"
     inkscape:current-layer="layer1"
     showgrid="false"
     units="px"
     inkscape:window-width="1247"
     inkscape:window-height="847"
     inkscape:window-x="361"
     inkscape:window-y="0"
     inkscape:window-maximized="0" />
  <metadata
     id="metadata4630">
    <rdf:RDF>
      <cc:Work
         rdf:about="">
        <dc:format>image/svg+xml</dc:format>
        <dc:type
           rdf:resource="http://purl.org/dc/dcmitype/StillImage" />
        <dc:title></dc:title>
      </cc:Work>
    </rdf:RDF>
  </metadata>
  <g
     inkscape:label="Layer 1"
     inkscape:groupmode="layer"
     id="layer1"
     transform="translate(0,-217.625)">
    <path
       style="fill:#000000;fill-opacity:1;stroke:none;stroke-width:0.82020831;stroke-miterlimit:4;stroke-dasharray:none;stroke-opacity:1"
       id="path5178"
       d="m 20.209187,231.62888 c -1.283236,0.73252 -2.661518,1.28407 -4.024638,1.84782 -1.53878,0.44597 -7.7517367,4.01976 -1.333555,0.37337 -0.50173,0.27086 -0.909731,0.57945 -1.236317,1.04053 -0.30581,0.52392 -0.568672,1.07067 -0.827397,1.62015 -0.841649,1.78123 -1.557951,3.61911 -2.244934,5.46477 -0.6090507,1.79058 -1.2407444,3.5819 -1.6852621,5.42203 -0.2752257,1.49955 -0.5226066,3.00409 -0.6732887,4.52154 -0.119816,1.36429 -0.142976,2.73411 -0.1446239,4.10282 -0.017071,1.53386 0.4152644,3.00658 0.8971997,4.44708 0.5081881,1.51722 1.385764,2.84851 2.36544,4.09815 1.167884,1.51877 2.644612,2.76215 4.127434,3.96062 1.65608,1.29207 3.385709,2.48318 5.119244,3.66706 1.26642,0.84754 2.525557,1.70604 3.768517,2.58764 1.31823,0.93131 2.683718,1.81511 4.112965,2.56669 1.250863,0.52692 2.507742,1.07761 3.810669,1.46806 0.255649,0.0766 2.060655,0.53749 2.2927,0.5971 2.344779,0.49939 4.735057,0.70275 7.118752,0.91305 2.085493,0.14936 4.180538,0.29175 6.270077,0.16834 2.044329,-0.18774 4.030152,-0.72039 5.992704,-1.29848 1.226055,-0.3901 2.459873,-0.80062 3.614158,-1.37648 0.259411,-0.12941 1.016275,-0.55838 0.764034,-0.41549 -0.837192,0.47426 -1.679315,0.93977 -2.518973,1.40965 1.302623,-0.77904 2.134529,-2.03156 2.971551,-3.2556 0.908907,-1.39039 1.711058,-2.84669 2.481445,-4.31714 0.359828,-0.70426 0.791131,-1.37688 1.109917,-2.10225 0.349742,-0.79579 0.572606,-1.65049 0.816348,-2.4821 0.525928,-1.89837 0.786122,-3.84982 1.03216,-5.79943 0.21499,-1.79735 0.264803,-3.60747 0.29695,-5.41544 -0.0088,-1.81582 -0.183914,-3.62552 -0.451138,-5.41995 -0.26742,-1.70159 -0.632881,-3.38408 -0.923102,-5.08193 -0.209804,-1.70286 -0.73618,-3.3334 -1.370896,-4.91979 -0.459989,-1.1729 -1.141691,-2.22883 -1.848665,-3.26348 -0.453073,-0.76182 -1.087599,-1.32645 -1.766986,-1.87947 -0.845886,-0.62426 -1.739188,-1.18186 -2.680697,-1.64994 -1.202285,-0.59385 -2.48816,-1.023 -3.777295,-1.3846 -1.753812,-0.50104 -3.543924,-0.84273 -5.338577,-1.15769 -1.165855,-0.20071 -2.346812,-0.26709 -3.527428,-0.29615 -1.06626,-0.0118 -2.132838,-0.0148 -3.199111,-0.005 -0.972699,0.007 -1.945317,0.005 -2.918013,0.008 -0.979178,0.004 -1.958409,-0.007 -2.937587,-0.002 -0.863092,0.006 -1.726284,9.6e-4 -2.589342,0.0106 -0.573839,0.0382 -1.172887,-0.0675 -1.736476,0.0634 -0.608695,0.15981 -1.243465,0.12727 -1.862984,0.22107 -0.959274,0.0909 -1.910215,0.23865 -2.868292,0.33984 -0.900362,0.0526 -1.769543,0.29627 -2.657652,0.42827 -0.308742,0.008 -0.697052,0.15027 -0.979178,0.28796 -0.04354,-0.0264 -0.05016,0.0604 -0.08357,0.0565 -0.274357,-0.0319 -0.110954,-0.0473 -0.385118,0.0781 -0.490162,0.21273 -0.950804,0.48016 -1.446523,0.68915 -0.575913,0.31965 -1.225961,0.51201 -1.780029,0.87095 -0.351537,0.0974 -0.646672,0.31685 -0.973108,0.46321 -0.128232,0.0575 -0.266802,0.0894 -0.395782,0.14525 -3.353446,1.69161 10.472812,-5.82041 -0.859291,0.38114 -1.585256,1.7265 10.385867,-6.69028 -0.220325,0.18722 -1.052266,0.68234 2.171174,-1.25594 3.257918,-1.8819 0.08433,-0.0486 -0.164602,0.10389 -0.246392,0.15663 -1.329073,1.00637 -2.911805,1.75118 -4.324,2.55577 0.142186,-0.15476 -0.895095,0.45132 -0.64111,0.30341 5.703728,-3.32163 3.905695,-2.35316 2.849642,-1.60103 -1.175614,0.6664 -2.351228,1.3328 -3.526842,1.9992 0,0 3.067549,-2.43441 3.067549,-2.43441 v 0 c -1.064474,0.61608 -2.128948,1.23217 -3.193421,1.84826 0.220237,-0.11461 0.113438,-0.0465 0.318542,-0.20728 1.404625,-0.82312 2.707597,-1.69313 4.169343,-2.3427 -5.731923,3.32272 -3.531968,2.13324 -2.363254,1.33185 1.015793,-0.91708 3.399397,-2.03629 3.699422,-2.20395 1.107154,-0.61871 -4.403915,2.51748 -3.287404,1.91582 3.810836,-2.05359 2.113172,-1.86878 3.565183,-2.01246 -1.059344,0.60473 -4.22946,2.43274 -3.17113,1.82624 1.216897,-0.69738 2.388881,-1.47753 3.643088,-2.10533 0.10939,-0.0548 0.230543,-0.0838 0.338264,-0.14233 0.449059,-0.17959 0.879054,-0.41662 1.315782,-0.62356 0.592011,-0.28177 1.187346,-0.55663 1.78257,-0.83138 0.502542,-0.24432 0.990682,-0.51874 1.516878,-0.71068 0.17612,-0.0529 0.33205,-0.0479 0.47831,-0.14279 0.32568,-0.086 0.641154,-0.18113 0.983663,-0.18546 0.869008,-0.12303 1.727723,-0.32185 2.606314,-0.3769 0.96669,-0.12534 1.93348,-0.24818 2.900691,-0.36918 0.634701,-0.068 1.270624,-0.11839 1.896718,-0.24856 0.578594,-0.0279 1.157986,0.0137 1.737032,1.6e-4 0.853329,0.01 1.706801,0.004 2.560167,0.0106 0.980866,0.006 1.961782,-0.005 2.942653,-0.002 0.969378,10e-4 1.938663,-0.003 2.908059,-0.001 1.066377,0.005 2.133005,-0.01 3.199218,0.0197 1.176869,0.0402 2.3491,0.14434 3.504586,0.38284 1.786744,0.34205 3.561813,0.742 5.320247,1.20856 1.344022,0.3551 2.687243,0.75262 3.935309,1.37593 0.940308,0.51233 1.837814,1.09103 2.699538,1.72695 0.722575,0.57233 1.40642,1.14226 1.854489,1.96692 0.680574,1.08245 1.316048,2.19431 1.781577,3.38919 0.638865,1.6068 1.206095,3.25953 1.416127,4.98412 0.292327,1.70228 0.640775,3.39335 0.902266,5.10058 0.283231,1.81021 0.468347,3.63617 0.490408,5.46968 -0.02701,1.82359 -0.07703,3.64849 -0.2975,5.46087 -0.246955,1.96288 -0.516377,3.92423 -0.998064,5.84591 -0.233905,0.83763 -0.424924,1.72005 -0.753812,2.52754 -0.299704,0.73584 -0.743682,1.40962 -1.107405,2.11289 -0.792337,1.46733 -1.568688,2.94476 -2.463506,4.3537 -0.840206,1.23952 -1.615615,2.5763 -2.915113,3.39454 -1.288439,0.75878 -2.569052,1.53099 -3.865314,2.27632 -1.362459,0.78338 -2.902381,1.22231 -4.386477,1.70341 -1.982221,0.55929 -3.983574,1.09288 -6.047565,1.23351 -2.094548,0.0848 -4.191677,-0.0574 -6.279457,-0.22687 -2.384872,-0.2435 -4.78073,-0.44908 -7.124353,-0.97706 -2.128652,-0.53096 -4.239723,-1.14408 -6.228575,-2.08681 -1.444244,-0.77201 -2.849206,-1.62762 -4.184237,-2.57661 -1.241917,-0.86741 -2.470088,-1.75313 -3.711049,-2.62217 -1.713397,-1.21858 -3.436311,-2.42551 -5.103446,-3.7074 -1.513874,-1.21649 -3.0297803,-2.45979 -4.2359141,-3.99533 -0.9933132,-1.29541 -1.9163789,-2.64249 -2.4252134,-4.21087 -0.4764706,-1.47151 -0.9770586,-2.9658 -1.0089128,-4.52737 0.024487,-1.3863 0.048854,-2.77432 0.1758185,-4.15594 0.1497767,-1.53093 0.3738258,-3.05098 0.6398702,-4.56583 0.4774404,-1.87073 1.1626188,-3.67765 1.7710094,-5.508 0.6682981,-1.81211 1.3477685,-3.61971 2.0666549,-5.41204 0.065088,-0.14894 0.1301763,-0.29788 0.1952643,-0.44682 0.03792,-0.11723 0.066843,-0.23775 0.1137597,-0.35167 0.2861837,-0.6949 -0.011975,0.15347 0.24404,-0.44209 0.032199,-0.0749 0.034847,-0.1614 0.073025,-0.23344 0.026505,-0.05 0.077515,-0.0825 0.1162723,-0.12376 0.09943,-0.27973 0.309903,-0.65197 0.54355,-0.8427 0.210864,-0.17213 0.505918,-0.22209 0.694708,-0.42921 2.530348,-1.46959 5.016016,-2.98639 7.764185,-4.01922 1.428829,-0.61509 2.84832,-1.25094 4.213021,-1.99925 0,0 -3.059376,2.41787 -3.059376,2.41787 z"
       inkscape:connector-curvature="0" />
    <path
       style="fill:#000000;fill-opacity:1;stroke:none;stroke-width:0.82020831;stroke-miterlimit:4;stroke-dasharray:none;stroke-opacity:1"
       id="path5194"
       d="m 18.256545,273.08711 c 1.963984,-2.2802 3.988983,-4.515 6.059361,-6.70109 0.707188,-0.71946 1.411337,-1.44191 2.121562,-2.15836 3.133741,-3.16123 1.643205,-1.59422 4.831442,-4.91594 2.295925,-2.39204 2.314895,-2.49096 4.64906,-4.77935 0.755486,-0.74067 1.529289,-1.46242 2.293935,-2.19363 3.560575,-3.29122 7.482681,-6.17773 11.534912,-8.83139 1.735159,-1.25623 3.550934,-2.41975 5.191885,-3.80281 0.06706,-0.0565 1.628648,-1.50293 1.726806,-1.59377 1.012306,-0.96124 2.12173,-1.81727 3.121503,-2.78974 0.315807,-0.27555 0.604372,-0.57303 0.947113,-0.81729 0.729298,-0.57098 1.436447,-0.8947 2.317041,-1.40175 0,0 -1.633445,1.30596 -1.633445,1.30596 v 0 c 2.941794,-1.73578 1.83719,-1.18011 1.260703,-0.66404 -0.07203,0.0441 -0.28317,0.16998 -0.34285,0.22077 -0.05105,0.0434 -0.08374,0.10622 -0.13625,0.14788 -0.04108,0.0326 -0.10265,0.0348 -0.140155,0.0714 -0.05743,0.0561 -0.07799,0.14338 -0.136249,0.19862 -0.06877,0.0652 -0.158483,0.10397 -0.237723,0.15595 -0.215178,0.20673 -0.411726,0.43374 -0.640075,0.62583 -0.156774,0.13187 -0.33559,0.23564 -0.494665,0.36472 -0.721913,0.58584 -1.353966,1.27377 -2.087943,1.84596 -0.586963,0.5382 -1.145331,1.10853 -1.753754,1.62235 -1.662898,1.40432 -3.517323,2.56742 -5.270354,3.85039 -4.11901,2.65542 -8.089498,5.5734 -11.719804,8.87103 -2.045718,1.94569 -2.641777,2.47808 -4.630428,4.5106 -3.07659,3.14444 -6.068001,6.37272 -9.174227,9.48865 -1.975924,2.12845 -3.883878,4.31839 -5.764024,6.52987 0,0 -1.893377,0.83917 -1.893377,0.83917 z"
       inkscape:connector-curvature="0" />
    <path
       style="fill:#000000;fill-opacity:1;stroke:none;stroke-width:0.82020831;stroke-miterlimit:4;stroke-dasharray:none;stroke-opacity:1"
       id="path5198"
       d="m 15.465369,235.06255 c 1.915006,2.04279 4.192704,3.69836 6.386566,5.42282 3.174817,2.39029 6.180703,4.99152 9.096716,7.68796 1.214292,1.26865 2.531824,2.42921 3.787518,3.65447 1.380839,1.34737 -0.0304,0.051 1.264632,1.21994 0.6419,0.69853 1.484839,1.15858 2.159621,1.81899 0.181904,0.17802 0.346549,0.37287 0.519822,0.55931 0.187637,0.17821 0.375274,0.35641 0.562912,0.53461 1.12283,1.3048 2.185371,2.65893 3.21641,4.03702 0.865274,1.2891 1.875125,2.47192 2.783326,3.72787 0.861068,1.22209 1.792711,2.39746 2.786401,3.51466 0.389848,0.31685 0.660506,0.7366 0.97522,1.11621 0.231368,0.27908 0.352229,0.37231 0.523134,0.71339 0.182192,0.31574 0.241115,0.64748 0.501685,0.91519 0.324892,0.33104 0.586126,0.69887 0.893709,1.04427 0.259776,0.38021 0.61871,0.67911 0.951685,0.99266 0.260443,0.30395 0.60996,0.47791 0.931463,0.70853 0.343046,0.35358 0.792456,0.5613 1.129599,0.92036 0.274238,0.0328 0.394346,0.27293 0.593693,0.42292 0.198194,0.14912 0.362506,0.19772 0.531784,0.39381 0.07462,0.10655 0.221837,0.10644 0.303755,0.20467 0.04509,0.0541 0.06367,0.24234 0.103354,0.18419 0.01492,-0.0219 -0.0021,-0.0529 -0.0032,-0.0793 0.06383,0.0887 0.206656,0.15782 0.249333,0.25932 0.02461,0.0585 0.01561,0.12857 0.04429,0.18519 0.01,0.0197 0.0411,0.016 0.06164,0.024 0.02972,0.064 0.05943,0.12794 0.08915,0.19191 0.02352,0.27343 0.19998,0.44421 0.326898,0.67191 0.138948,0.12512 0.191756,-0.0322 0.309684,0.28887 0.0049,0.0217 0.02236,0.0858 0.01463,0.065 -0.01259,-0.034 -0.06203,-0.0891 -0.02932,-0.10461 0.03359,-0.016 0.04979,0.0553 0.07427,0.0833 0.107238,0.12261 0.189262,0.22222 0.328208,0.30894 0.262562,0.23285 0.587478,0.39966 0.901038,0.55691 0.113088,0.0472 0.06043,0.0282 0.157091,0.0594 0,0 -1.750515,1.17034 -1.750515,1.17034 v 0 c -0.09967,-0.0494 -0.04517,-0.0216 -0.163031,-0.0845 -0.307319,-0.18447 -0.635246,-0.34643 -0.908261,-0.57891 -0.110234,-0.0846 -0.473541,-0.34332 -0.475025,-0.47816 0.03201,-0.0615 -0.306158,-0.10124 -0.291529,-0.24547 -0.09733,-0.24249 -0.320693,-0.40584 -0.315108,-0.68533 -0.206214,-0.47575 0.190611,0.40715 -0.185288,-0.26699 -0.0326,-0.0584 0.01961,-0.22325 -0.162208,-0.20705 -0.117348,-0.10317 -0.0696,-0.11013 -0.148241,-0.19376 -0.06661,-0.0708 -0.166444,-0.10169 -0.241903,-0.16301 -0.02985,-0.0243 -0.05044,-0.0581 -0.07567,-0.0871 -0.153967,-0.16793 -0.333023,-0.24687 -0.512332,-0.38528 -0.197098,-0.15214 -0.361394,-0.33824 -0.603803,-0.42802 -0.33229,-0.34116 -0.774673,-0.54817 -1.114615,-0.88438 -0.323683,-0.23382 -0.680924,-0.41447 -0.938467,-0.73087 -0.352369,-0.30186 -0.684429,-0.64454 -0.962474,-1.01247 -0.310026,-0.34471 -0.56728,-0.72048 -0.905489,-1.03848 -0.14899,-0.18363 -0.288317,-0.35546 -0.357389,-0.58431 -0.01691,-0.056 -0.0096,-0.11834 -0.03144,-0.17259 -0.03105,-0.0772 -0.08327,-0.14407 -0.12491,-0.2161 -0.135503,-0.28345 -0.309266,-0.44988 -0.496691,-0.69654 -0.291793,-0.384 -0.541986,-0.80162 -0.918589,-1.11929 -0.981331,-1.13565 -1.924732,-2.30753 -2.792055,-3.53291 -0.910381,-1.25284 -1.897131,-2.4507 -2.767862,-3.73396 -1.019677,-1.37361 -2.072671,-2.72073 -3.205781,-4.00352 -0.190738,-0.18061 -0.381474,-0.36122 -0.572209,-0.54183 -0.172355,-0.17954 -0.336953,-0.36686 -0.517062,-0.53861 -0.682588,-0.65089 -1.517992,-1.12322 -2.1473,-1.8333 -1.450412,-1.37829 0.306641,0.31435 -1.228649,-1.24556 -1.224499,-1.24413 -2.521108,-2.41646 -3.702642,-3.70409 -2.890563,-2.70899 -5.850799,-5.35548 -9.053269,-7.69531 -2.245445,-1.70661 -4.538131,-3.36597 -6.599721,-5.29736 0,0 1.742804,-1.08985 1.742804,-1.08985 z"
       inkscape:connector-curvature="0" />
    <path
       style="fill:#000000;fill-opacity:1;stroke:none;stroke-width:0.82020831;stroke-miterlimit:4;stroke-dasharray:none;stroke-opacity:1"
       id="path5200"
       d="m 7.8144538,255.71133 c 2.5266982,0.41445 5.0705342,0.63119 7.6216912,0.82816 3.687793,0.26801 7.386753,0.28139 11.082068,0.25293 2.427563,0.0667 4.825455,-0.27217 7.219072,-0.61931 2.454275,-0.24433 4.895159,-0.60111 7.347278,-0.8654 1.031912,-0.24851 2.094963,-0.17656 3.140863,-0.25865 0.632426,-0.0496 1.39377,-0.17294 2.030193,-0.26776 0.157459,-0.0292 0.316008,-0.0531 0.472374,-0.0877 0.438118,-0.097 0.418513,-0.13954 0.839084,-0.1716 0.341164,-0.026 0.655389,0.009 0.992992,-0.0487 0.70368,-0.15653 1.417677,-0.15328 2.134327,-0.15486 1.440995,0.0188 2.887877,-0.24803 4.267346,-0.65249 1.250185,-0.43294 2.53075,-0.77135 3.769786,-1.23489 0.498837,-0.21632 1.031375,-0.3293 1.545939,-0.49928 0.176286,-0.0582 0.344556,-0.14256 0.52519,-0.18546 0.426879,-0.10139 0.868606,-0.12471 1.3027,-0.1885 0.899144,-0.17194 1.798296,-0.34014 2.706015,-0.45778 0.157798,0.0577 0.242816,-0.0268 0.385202,-0.0469 0.243837,-0.0345 0.420259,0.034 0.697306,-0.0167 0.0912,-0.0382 0.178581,-0.0872 0.27359,-0.11457 0.09943,-0.0286 0.207317,-0.0211 0.305967,-0.0523 0.176136,-0.0557 0.323834,-0.18187 0.505092,-0.23876 0,0 -1.646079,1.28928 -1.646079,1.28928 v 0 c -0.356269,0.15945 -0.720915,0.27152 -1.102833,0.3577 -0.368181,0.0276 -0.735462,0.0429 -1.103432,0.0711 -0.887661,0.0473 -1.755354,0.28884 -2.631847,0.41676 -0.34413,0.0535 -0.951836,0.13831 -1.294024,0.22862 -0.701255,0.18508 -1.384668,0.46474 -2.073183,0.69027 -1.239639,0.43826 -2.509824,0.78259 -3.755421,1.20417 -1.40933,0.37415 -2.865388,0.63902 -4.32774,0.63161 -0.720624,0.0142 -1.43634,0.0547 -2.145651,0.19186 -0.32734,0.0257 -0.65178,0.008 -0.978792,0.0451 -0.396851,0.0451 -0.397444,0.0836 -0.824881,0.16551 -0.15217,0.0292 -0.306279,0.0471 -0.459417,0.0707 -0.661339,0.0873 -1.335289,0.17731 -2.001073,0.21796 -1.031571,0.063 -2.072082,0.0346 -3.092246,0.24288 -2.456577,0.2715 -4.903145,0.62187 -7.36079,0.88382 -2.380827,0.34183 -4.766226,0.65547 -7.180267,0.5572 -3.684622,-0.0124 -7.371992,-0.0377 -11.049506,-0.29326 -0.233774,-0.0155 -3.262507,-0.21469 -3.60197,-0.24373 -1.4103773,-0.12065 -2.8073339,-0.35757 -4.2195744,-0.45921 0,0 1.6846512,-1.18782 1.6846512,-1.18782 z"
       inkscape:connector-curvature="0" />
    <path
       style="fill:#000000;fill-opacity:1;stroke:none;stroke-width:0.82020831;stroke-miterlimit:4;stroke-dasharray:none;stroke-opacity:1"
       id="path5206"
       d="m 35.321374,229.57964 c -0.02413,0.99255 -0.01262,1.98543 -0.02487,2.97815 -0.06313,1.8237 0.128103,3.63888 0.346114,5.44636 0.34226,2.47639 0.746035,4.94244 1.144268,7.41021 0.17613,0.9358 0.392549,1.86006 0.416224,2.81496 -0.0019,0.41758 -0.01434,0.83483 -0.02201,1.25231 0.0011,0.30958 -0.0098,0.61976 -2.64e-4,0.92918 0.008,0.15839 0.0043,0.31704 0.0045,0.47554 -0.0016,0.16932 0.0038,0.33854 -0.0033,0.50771 0.0058,0.26212 -0.0013,0.52436 -0.0049,0.7865 -0.01961,0.45047 0.0083,0.90128 0.0013,1.35166 0.01233,0.14492 1.22e-4,0.28945 0.01135,0.43428 -0.0077,0.20146 -0.20874,0.24997 -0.268089,0.43394 -0.03205,0.16996 -0.01527,0.3462 -0.0047,0.51801 0.0055,0.27759 -0.0029,0.55579 -0.003,0.83361 5.29e-4,0.31723 -5.29e-4,0.63454 0.0038,0.95175 0.0033,0.19833 0.04661,0.41653 -0.146556,0.5322 -0.191397,0.29541 -0.130024,0.68449 -0.182152,1.02099 -0.149029,0.52439 -0.209317,1.06064 -0.224713,1.60354 -0.02722,0.68375 -0.1895,1.35226 -0.246084,2.03595 0.03025,0.56603 -0.113932,1.10412 -0.222369,1.65286 -0.07203,0.33657 -0.05059,0.68055 -0.05067,1.02172 0.06216,0.39532 -0.120515,0.74074 -0.209759,1.11501 -0.05322,0.39171 -0.235789,0.7453 -0.305832,1.13354 -0.04301,0.41944 -0.01683,0.842 -0.01127,1.26272 0.03252,0.46499 -0.169738,0.89357 -0.245338,1.34445 -0.01998,0.37116 -0.02257,0.7354 -0.283879,1.02457 -0.06042,0.25039 -0.04478,0.50826 -0.110215,0.77043 -0.120721,0.34807 -0.141428,0.71318 -0.261689,1.06092 -0.11762,0.43827 -0.369461,0.81661 -0.547671,1.23227 -0.180491,0.38569 -0.119621,0.81089 -0.186489,1.2152 -0.08464,0.21588 -0.173818,0.42398 -0.23672,0.64658 -0.118552,0.11987 -0.224719,0.1912 -0.244949,0.37239 -0.01744,0.19265 -0.183324,0.27636 -0.253143,0.44926 -0.04697,0.21312 -0.193278,0.3697 -0.249719,0.58959 -0.06793,0.25003 -0.236442,0.44627 -0.28839,0.69979 -0.03147,0.13768 -0.149011,0.29843 -0.251384,0.39622 -0.240371,0.99706 1.15111,-0.43368 -1.905105,1.29897 -0.566836,0.32136 2.274022,-1.27347 1.708679,-0.9495 0,0 -1.940568,0.81893 -1.940568,0.81893 v 0 c 0.353271,-0.69386 0.275926,-0.5745 1.914101,-1.13797 0.639723,-0.22004 -1.181168,0.66129 -1.752663,1.02331 -0.02585,0.0164 0.06307,0.053 0.08586,0.0325 0.02553,-0.0229 -0.0059,-0.0683 -0.0078,-0.10255 -0.0013,-0.0235 -0.0011,-0.0471 -0.0016,-0.0706 -0.0024,-0.14942 0.08769,-0.38068 0.271383,-0.37702 0.0087,-0.28483 0.122521,-0.48732 0.279776,-0.72059 0.02701,-0.14755 0.04968,-0.42055 0.167206,-0.53246 0.01794,-0.0171 0.05242,0.0123 0.07426,7.9e-4 0.01339,-0.007 0.0056,-0.0298 0.0083,-0.0447 0.0024,-0.18983 0.05274,-0.39983 0.262496,-0.42894 5.29e-4,-0.1586 -0.007,-0.46206 0.186449,-0.49746 0.02692,-0.005 0.06359,0.006 0.08075,-0.0152 0.04616,-0.0574 0.0073,-0.14888 0.03023,-0.21888 0.0382,-0.11682 0.145005,-0.21481 0.169264,-0.33897 0.189945,-0.35643 -0.0335,-0.86788 0.199475,-1.23419 0.04165,-0.12714 0.222173,-0.6109 0.289901,-0.71937 0.03417,-0.0547 0.116126,-0.0687 0.147839,-0.1249 0.06497,-0.11509 0.0032,-0.27613 0.09519,-0.3849 0.157173,-0.3507 0.143611,-0.68801 0.279562,-1.03961 0.03176,-0.12476 0.08997,-0.24396 0.104068,-0.37192 0.01595,-0.14473 -0.08913,-0.29286 -0.03057,-0.43888 0.112247,-0.33001 -0.0436,0.02 0.175017,-0.20381 0.187843,-0.1923 0.126653,-0.52488 0.154347,-0.75988 0.0523,-0.4525 0.262017,-0.86119 0.259908,-1.31514 -0.0092,-0.42981 -0.02673,-0.86007 -0.0074,-1.28984 0.0419,-0.40501 0.224592,-0.75545 0.305575,-1.14829 0.06546,-0.3725 0.257911,-0.69295 0.225129,-1.07062 -0.01471,-0.35509 -0.02543,-0.7133 0.03163,-1.06551 0.122217,-0.54388 0.282766,-1.07498 0.254159,-1.63918 0.05459,-0.67815 0.195001,-1.34417 0.239437,-2.01897 0.0093,-0.55142 0.04921,-1.10177 0.206426,-1.63389 0.08841,-0.36573 0.01323,-0.74168 0.116755,-1.1076 0.119322,-0.24982 0.258821,0.0513 0.2124,-0.4009 0.0043,-0.31882 0.0037,-0.63774 0.0051,-0.95659 7.93e-4,-0.27259 -0.0026,-0.54523 -0.0089,-0.8177 -0.0038,-0.1895 -0.01878,-0.37851 -0.01984,-0.56812 0.02535,-0.15998 0.05336,-0.46895 0.280961,-0.38744 0.01066,-0.14871 -5.29e-4,-0.29704 0.01135,-0.44583 -0.007,-0.45084 0.02103,-0.90213 0.0013,-1.35306 -0.0035,-0.26046 -0.01077,-0.52101 -0.0049,-0.78146 -0.0073,-0.16809 -0.0013,-0.33629 -0.0031,-0.50454 2.64e-4,-0.15962 -0.0031,-0.31933 0.0035,-0.47887 0.0075,-0.31098 -0.0071,-0.62238 -7.94e-4,-0.93352 0.0074,-0.41954 0.0378,-0.83845 0.04666,-1.25796 0.0019,-0.95606 -0.164246,-1.89353 -0.321834,-2.83441 -0.306052,-2.48676 -0.726342,-4.95953 -1.097709,-7.43691 -0.25808,-1.79702 -0.493662,-3.60434 -0.445336,-5.42415 -0.0123,-0.98427 -5.29e-4,-1.96871 -0.02487,-2.95281 0,0 1.851084,-0.94318 1.851084,-0.94318 z"
       inkscape:connector-curvature="0" />
    <path
       style="fill:#000000;fill-opacity:1;stroke:none;stroke-width:0.82020831;stroke-miterlimit:4;stroke-dasharray:none;stroke-opacity:1"
       id="path5208"
       d="m 14.270615,233.90268 c 0.328245,0.39588 0.774586,0.63429 1.216003,0.87378 0.0357,0.0338 0.06477,0.0765 0.107096,0.10152 0.01537,0.009 0.03545,-0.004 0.05318,-0.007 0.03221,0.0171 0.06839,0.0282 0.09662,0.0513 0.05691,0.0465 0.06248,0.14119 0.122851,0.18311 0.01835,0.0127 0.0432,-0.0114 0.0648,-0.0172 0.104312,0.12579 0.06436,0.0603 0.125545,0.19303 0,0 -1.843217,1.02101 -1.843217,1.02101 v 0 c -0.03965,-0.0666 0.06738,0.0276 -0.0266,-0.0447 -0.159552,-0.11289 -0.282342,-0.24531 -0.459252,-0.33997 -0.436181,-0.27382 -0.878547,-0.54439 -1.23345,-0.92668 0,0 1.77643,-1.0886 1.77643,-1.0886 z"
       inkscape:connector-curvature="0" />
    <path
       sodipodi:type="star"
       style="fill:#3b7ea1;fill-opacity:1;stroke:#3b7ea1;stroke-width:0.1;stroke-miterlimit:4.19999981;stroke-dasharray:none;stroke-dashoffset:0;stroke-opacity:1"
       id="path5652"
       sodipodi:sides="12"
       sodipodi:cx="19.314583"
       sodipodi:cy="252.28542"
       sodipodi:r1="0.026590297"
       sodipodi:r2="2.6590297"
       sodipodi:arg1="-1.670465"
       sodipodi:arg2="-1.4086656"
       inkscape:flatsided="false"
       inkscape:rounded="0.05"
       inkscape:randomized="0.1"
       d="m 19.462917,252.13828 c 0.134725,0.003 0.401327,-2.67826 0.529609,-2.66451 0.128281,0.0137 -0.969365,2.92557 -0.857191,2.9884 0.112174,0.0628 1.78768,-2.21146 1.889958,-2.12912 0.102278,0.0823 -1.602811,1.83962 -1.535188,1.94958 0.06762,0.10996 2.443325,-0.92951 2.508313,-0.80839 0.06499,0.12111 -2.90961,0.61855 -2.891785,0.74573 0.01782,0.12718 2.889815,0.56232 2.860268,0.68846 -0.02955,0.12614 -2.365615,-0.71004 -2.416572,-0.58688 -0.05096,0.12315 2.072494,1.29824 1.978713,1.38319 -0.09378,0.085 -2.112211,-1.63588 -2.216681,-1.56602 -0.104471,0.0699 1.294543,2.32896 1.181067,2.3864 -0.113477,0.0575 -0.958193,-2.06696 -1.092132,-2.0464 -0.13394,0.0206 -0.398154,2.21536 -0.5296,2.1916 -0.131446,-0.0238 0.443366,-2.46451 0.325376,-2.51548 -0.11799,-0.051 -1.245017,2.14105 -1.35816,2.07024 -0.113144,-0.0708 1.628269,-2.00389 1.563874,-2.11816 -0.06439,-0.11427 -2.460081,1.46733 -2.508313,1.3402 -0.04823,-0.12713 2.370448,-1.21052 2.359971,-1.33643 -0.01048,-0.12591 -2.594371,-0.3677 -2.567888,-0.50273 0.02648,-0.13504 2.558538,0.80597 2.627328,0.6875 0.06879,-0.11846 -2.077452,-1.76253 -1.978704,-1.85612 0.09875,-0.0936 1.651517,2.08662 1.742205,1.99806 0.09069,-0.0885 -0.801176,-2.52282 -0.677922,-2.57298 0.123254,-0.0502 0.92873,2.27069 1.063454,2.27386 z" />
    <path
       sodipodi:type="star"
       style="fill:#3b7ea1;fill-opacity:1;stroke:#3b7ea1;stroke-width:0.1;stroke-miterlimit:4.19999981;stroke-dasharray:none;stroke-opacity:1"
       id="path5269"
       sodipodi:sides="12"
       sodipodi:cx="47.360416"
       sodipodi:cy="24.077084"
       sodipodi:r1="2.5100577"
       sodipodi:r2="0.025100579"
       sodipodi:arg1="-1.2490458"
       sodipodi:arg2="-0.98724638"
       inkscape:flatsided="false"
       inkscape:rounded="0.05"
       inkscape:randomized="0.1"
       d="m 47.930538,21.810817 c 0.113552,0.03685 -0.720993,2.006394 -0.607332,2.059387 0.113661,0.05299 1.620715,-1.330482 1.69903,-1.228157 0.07832,0.102325 -1.698647,1.23501 -1.64621,1.341884 0.05244,0.106874 2.485851,-0.488049 2.51317,-0.36937 0.02732,0.118678 -2.46604,0.495034 -2.456326,0.619688 0.0097,0.124653 2.562344,0.734727 2.539225,0.85407 -0.02312,0.119342 -2.574188,-1.146296 -2.651481,-1.045977 -0.07729,0.100319 2.003842,1.837095 1.914128,1.926335 -0.08971,0.08924 -1.884498,-1.728712 -1.995467,-1.687107 -0.110969,0.04161 0.765969,2.083293 0.640754,2.110634 -0.125215,0.02734 -0.40531,-2.147364 -0.530331,-2.173144 -0.125021,-0.02578 -0.685532,2.247713 -0.79799,2.200724 -0.112459,-0.04699 1.044267,-2.36893 0.935823,-2.427335 -0.108444,-0.0584 -1.706496,1.998168 -1.801001,1.91058 -0.0945,-0.08759 1.596227,-1.491262 1.548724,-1.605058 -0.0475,-0.113797 -2.126916,0.436811 -2.140192,0.31807 -0.01328,-0.118741 2.049988,-0.178719 2.056285,-0.298087 0.0063,-0.119367 -2.465849,-0.748559 -2.414676,-0.861197 0.05117,-0.112639 2.444987,0.652467 2.526932,0.551093 0.08194,-0.101374 -1.618883,-1.673916 -1.514087,-1.745926 0.104796,-0.07201 1.706054,1.812141 1.821938,1.765586 0.115885,-0.04656 -0.760415,-2.543679 -0.640746,-2.557061 0.119669,-0.01338 0.409405,2.675894 0.530331,2.675156 0.120926,-7.37e-4 0.355947,-2.37164 0.469499,-2.334788 z"
       transform="translate(0,217.625)"
       inkscape:transform-center-x="-0.068102611"
       inkscape:transform-center-y="-0.044925402" />
    <path
       sodipodi:type="star"
       style="fill:#3b7ea1;fill-opacity:1;stroke:#3b7ea1;stroke-width:0.1;stroke-miterlimit:4.19999981;stroke-dasharray:none;stroke-opacity:1"
       id="path5276"
       sodipodi:sides="12"
       sodipodi:cx="27.252083"
       sodipodi:cy="53.974998"
       sodipodi:r1="2.6058435"
       sodipodi:r2="0.026058435"
       sodipodi:arg1="-1.152572"
       sodipodi:arg2="-0.89077261"
       inkscape:flatsided="false"
       inkscape:rounded="0.05"
       inkscape:randomized="0.1"
       d="m 28.424692,51.434264 c 0.121191,0.04992 -1.066889,2.25273 -0.976225,2.345168 0.09066,0.09244 1.886318,-1.321498 1.950869,-1.203484 0.06455,0.118014 -2.262681,1.289666 -2.211147,1.408287 0.05153,0.118621 2.583155,-0.391658 2.596383,-0.265035 0.01323,0.126623 -2.53237,0.216562 -2.566743,0.342259 -0.03437,0.125697 2.421847,0.987895 2.388387,1.110694 -0.03346,0.122798 -2.472981,-1.305734 -2.562323,-1.212624 -0.08934,0.09311 2.102848,1.881952 1.998323,1.951995 -0.104524,0.07004 -1.698234,-1.809333 -1.825145,-1.763193 -0.126911,0.04614 0.245144,2.24066 0.122337,2.252348 -0.122808,0.01169 -0.196849,-2.359037 -0.32308,-2.380359 -0.126232,-0.02132 -0.707061,2.49444 -0.83216,2.444064 -0.125098,-0.05038 1.094548,-2.413984 1.004338,-2.510372 -0.09021,-0.09639 -1.89921,1.545586 -1.979501,1.439077 -0.08029,-0.106508 2.301886,-1.119047 2.239763,-1.238125 -0.06212,-0.119078 -2.62911,0.213202 -2.624471,0.08219 0.0046,-0.131013 2.556249,-0.151493 2.566751,-0.284553 0.0105,-0.13306 -2.423627,-0.992216 -2.388387,-1.110693 0.03524,-0.118478 1.961972,1.321649 2.041155,1.212623 0.07918,-0.109025 -1.540691,-2.150905 -1.449059,-2.232611 0.09163,-0.08171 1.677315,2.015855 1.797041,1.986102 0.119726,-0.02975 -0.767537,-2.271134 -0.644042,-2.29737 0.123495,-0.02624 0.200286,2.405792 0.323089,2.438065 0.122802,0.03227 1.232657,-2.564375 1.353847,-2.514453 z"
       transform="translate(0,217.625)"
       inkscape:transform-center-x="0.085780833"
       inkscape:transform-center-y="0.10704398" />
    <path
       sodipodi:type="star"
       style="fill:#3b7ea1;fill-opacity:1;stroke:#3b7ea1;stroke-width:0.1;stroke-miterlimit:4.19999981;stroke-dasharray:none;stroke-opacity:1"
       id="path5283"
       sodipodi:sides="12"
       sodipodi:cx="35.845253"
       sodipodi:cy="46.946072"
       sodipodi:r1="2.6884806"
       sodipodi:r2="0.026884805"
       sodipodi:arg1="-1.4690621"
       sodipodi:arg2="-1.2072627"
       inkscape:flatsided="false"
       inkscape:rounded="0.05"
       inkscape:randomized="0.1"
       d="m 35.991371,44.032291 c 0.131726,0.0067 -0.217938,2.70909 -0.085,2.742021 0.132937,0.03293 1.176205,-1.965247 1.293215,-1.897767 0.117011,0.06748 -1.557694,2.093674 -1.471708,2.193732 0.08599,0.100057 2.437041,-1.404355 2.506585,-1.288136 0.06954,0.116219 -2.368346,1.299513 -2.327398,1.426189 0.04095,0.126677 2.659893,-0.34281 2.65285,-0.208459 -0.007,0.13435 -2.650529,-0.343212 -2.683121,-0.208224 -0.03259,0.134988 2.016111,1.419369 1.935087,1.518099 -0.08102,0.09873 -2.097811,-1.493882 -2.204011,-1.412918 -0.1062,0.08096 1.439823,2.207938 1.321241,2.264553 -0.118583,0.05662 -1.069352,-2.163676 -1.202005,-2.14999 -0.132652,0.01368 0.124774,2.520737 -0.0048,2.51672 -0.129589,-0.004 0.221656,-2.488213 0.09386,-2.536507 -0.127801,-0.0483 -1.704768,1.965524 -1.811333,1.893982 -0.106565,-0.07154 2.080114,-2.098744 1.989826,-2.189947 -0.09029,-0.0912 -2.446446,1.513296 -2.486444,1.390339 -0.04,-0.122957 2.313504,-0.905949 2.306704,-1.037147 -0.0068,-0.131199 -2.682613,-0.09552 -2.652289,-0.22325 0.03032,-0.127728 2.623868,0.203927 2.683104,0.08915 0.05924,-0.114776 -2.035756,-1.566719 -1.943933,-1.664077 0.09182,-0.09736 1.591965,1.946403 1.704156,1.866613 0.112191,-0.07979 -0.934342,-2.653608 -0.821385,-2.718249 0.112956,-0.06464 1.079758,2.326806 1.21085,2.295968 0.131091,-0.03084 -0.135757,-2.669421 -0.004,-2.662697 z"
       transform="translate(0,217.625)"
       inkscape:transform-center-x="0.010310802"
       inkscape:transform-center-y="0.0052957526" />
    <path
       sodipodi:type="star"
       style="fill:#3b7ea1;fill-opacity:1;stroke:#3b7ea1;stroke-width:0.1;stroke-miterlimit:4.19999981;stroke-dasharray:none;stroke-opacity:1"
       id="path5287"
       sodipodi:sides="12"
       sodipodi:cx="55.827084"
       sodipodi:cy="44.185417"
       sodipodi:r1="2.3959038"
       sodipodi:r2="0.023959039"
       sodipodi:arg1="-1.4601391"
       sodipodi:arg2="-1.1983397"
       inkscape:flatsided="false"
       inkscape:rounded="0.05"
       inkscape:randomized="0.1"
       d="m 56.065526,41.817488 c 0.11398,0.01463 -0.45691,2.22902 -0.343954,2.259964 0.112955,0.03094 1.240539,-1.817953 1.336276,-1.742084 0.09574,0.07587 -1.096934,1.818424 -1.016245,1.899816 0.08069,0.08139 2.047639,-1.067135 2.101711,-0.956824 0.05407,0.110312 -2.47771,0.730196 -2.446653,0.847065 0.03106,0.116868 2.458915,0.230032 2.438771,0.352945 -0.02014,0.122912 -2.448503,-0.248554 -2.492198,-0.134615 -0.04369,0.113938 1.971645,1.100059 1.889261,1.183842 -0.08238,0.08378 -1.529957,-1.414687 -1.623995,-1.348182 -0.09404,0.06651 0.953164,2.31247 0.839038,2.353807 -0.114126,0.04134 -0.564676,-2.358682 -0.681166,-2.341706 -0.11649,0.01698 -0.580117,2.17178 -0.692116,2.152327 -0.111998,-0.01945 0.463706,-2.230447 0.343954,-2.259964 -0.119752,-0.02952 -1.0307,2.0711 -1.120552,2.000861 -0.08985,-0.07024 1.092116,-1.864279 1.016238,-1.952873 -0.07588,-0.08859 -1.804414,1.342915 -1.838247,1.230284 -0.03383,-0.11263 2.216336,-0.957057 2.183197,-1.067468 -0.03314,-0.110412 -2.659398,-0.120883 -2.654512,-0.238656 0.0049,-0.117772 2.679278,0.08492 2.707931,-0.03273 0.02865,-0.117652 -2.171311,-1.286038 -2.104979,-1.389562 0.06633,-0.103524 1.710583,1.452783 1.813889,1.385786 0.103305,-0.067 -0.918361,-2.086522 -0.813206,-2.132634 0.105154,-0.04611 0.822274,2.092647 0.944622,2.082929 0.122348,-0.0097 0.09896,-2.166956 0.212935,-2.152327 z"
       transform="translate(0,217.625)"
       inkscape:transform-center-x="0.019432126"
       inkscape:transform-center-y="-0.13186426" />
    <path
       sodipodi:type="star"
       style="fill:#3b7ea1;fill-opacity:1;stroke:#3b7ea1;stroke-width:0.1;stroke-miterlimit:4.19999981;stroke-dasharray:none;stroke-opacity:1"
       id="path5291"
       sodipodi:sides="12"
       sodipodi:cx="54.504166"
       sodipodi:cy="30.427082"
       sodipodi:r1="1.090905"
       sodipodi:r2="0.01090905"
       sodipodi:arg1="-1.3258177"
       sodipodi:arg2="-1.0640183"
       inkscape:flatsided="false"
       inkscape:rounded="0.05"
       inkscape:randomized="0.1"
       d="m 54.742932,29.392219 c 0.05348,0.01445 -0.19073,0.897792 -0.140314,0.919242 0.05042,0.02145 0.661048,-0.740316 0.698066,-0.699205 0.03702,0.04111 -0.891914,0.718686 -0.865126,0.766218 0.02679,0.04753 1.202027,-0.371606 1.218649,-0.322094 0.01662,0.04951 -1.193476,0.209474 -1.193547,0.261676 -7.2e-5,0.0522 1.103304,0.329751 1.090856,0.381835 -0.01245,0.05208 -1.08376,-0.405933 -1.10397,-0.35627 -0.02021,0.04966 0.815922,0.767665 0.784318,0.81065 -0.0316,0.04299 -0.566043,-0.698576 -0.617096,-0.676414 -0.05105,0.02216 0.228404,0.897196 0.174615,0.911175 -0.05379,0.01398 -0.197485,-1.017876 -0.250831,-1.02386 -0.05335,-0.006 -0.272676,1.186937 -0.324338,1.181411 -0.05166,-0.0055 0.381445,-1.120981 0.334968,-1.144809 -0.04648,-0.02383 -0.661355,0.746172 -0.698287,0.704515 -0.03693,-0.04166 0.667158,-0.723028 0.647165,-0.771528 -0.01999,-0.0485 -0.963233,0.360154 -0.977165,0.310632 -0.01393,-0.04952 0.967254,-0.06935 0.963829,-0.125351 -0.0034,-0.05601 -1.123174,-0.235303 -1.102842,-0.283207 0.02033,-0.0479 1.089039,0.257973 1.115949,0.209326 0.02691,-0.04865 -0.807412,-0.667533 -0.772556,-0.709946 0.03486,-0.04241 0.775987,0.600389 0.823515,0.57571 0.04753,-0.02468 -0.431618,-0.981147 -0.381252,-0.999185 0.05037,-0.01804 0.319634,1.133157 0.370788,1.124215 0.05115,-0.0089 0.151125,-1.059183 0.204606,-1.044736 z"
       transform="translate(0,217.625)"
       inkscape:transform-center-x="-0.044550823"
       inkscape:transform-center-y="-0.0040315726" />
    <path
       sodipodi:type="star"
       style="fill:#3b7ea1;fill-opacity:1;stroke:#3b7ea1;stroke-width:0.1;stroke-miterlimit:4.19999981;stroke-dasharray:none;stroke-opacity:1"
       id="path5293"
       sodipodi:sides="12"
       sodipodi:cx="19.314583"
       sodipodi:cy="25.4"
       sodipodi:r1="1.6733719"
       sodipodi:r2="0.016733717"
       sodipodi:arg1="-1.8925469"
       sodipodi:arg2="-1.6307475"
       inkscape:flatsided="false"
       inkscape:rounded="0.05"
       inkscape:randomized="0.1"
       d="m 18.800687,23.645788 c 0.07106,-0.03538 0.428496,1.790806 0.510369,1.782236 0.08187,-0.0086 0.393495,-1.813416 0.478476,-1.797927 0.08498,0.01549 -0.404772,1.737824 -0.325642,1.770867 0.07913,0.03304 0.739656,-1.343444 0.798425,-1.28766 0.05877,0.05578 -1.027855,1.047561 -0.982244,1.115219 0.04561,0.06766 1.537778,-0.519139 1.568206,-0.442962 0.03043,0.07618 -1.508669,0.461786 -1.511298,0.541705 -0.0026,0.07992 1.786455,0.192643 1.771824,0.276888 -0.01463,0.08425 -1.762429,-0.276658 -1.809591,-0.206781 -0.04716,0.06988 1.487347,0.937191 1.424061,0.991379 -0.06329,0.05419 -1.482234,-0.875927 -1.55607,-0.839848 -0.07384,0.03608 0.885405,1.548471 0.807435,1.565084 -0.07797,0.01661 -0.546617,-1.693956 -0.625299,-1.682938 -0.07868,0.01102 -0.283357,1.692323 -0.363891,1.669718 -0.08053,-0.02261 0.396045,-1.724543 0.325643,-1.770867 -0.0704,-0.04632 -1.041459,1.327653 -1.097016,1.261932 -0.05556,-0.06572 1.006846,-1.12137 0.964213,-1.195579 -0.04263,-0.07421 -1.561354,0.65971 -1.585914,0.577961 -0.02456,-0.08175 1.545093,-0.517529 1.547037,-0.596344 0.0019,-0.07881 -1.478084,-0.278853 -1.455181,-0.357249 0.0229,-0.0784 1.437163,0.574278 1.474912,0.5044 0.03775,-0.06988 -1.28295,-1.32764 -1.222019,-1.389375 0.06093,-0.06173 1.273241,1.429916 1.33598,1.380988 0.06274,-0.04893 -0.543477,-1.835467 -0.472416,-1.870847 z"
       transform="translate(0,217.625)"
       inkscape:transform-center-x="-0.056818893"
       inkscape:transform-center-y="-0.069462003" />
    <path
       sodipodi:type="star"
       style="fill:#3b7ea1;fill-opacity:1;stroke:#3b7ea1;stroke-width:0.1;stroke-miterlimit:4.19999981;stroke-dasharray:none;stroke-opacity:1"
       id="path5297"
       sodipodi:sides="12"
       sodipodi:cx="41.274998"
       sodipodi:cy="17.197916"
       sodipodi:r1="2.1331389"
       sodipodi:r2="0.02133139"
       sodipodi:arg1="-1.0516502"
       sodipodi:arg2="-0.78985082"
       inkscape:flatsided="false"
       inkscape:rounded="0.05"
       inkscape:randomized="0.1"
       d="m 42.453846,15.253029 c 0.08126,0.06401 -1.362899,1.836443 -1.300075,1.91615 0.06283,0.07971 1.859125,-1.074718 1.899623,-0.978242 0.0405,0.09648 -1.772007,0.793487 -1.756434,0.89829 0.01557,0.104803 1.960018,0.03605 1.955018,0.13663 -0.005,0.10058 -1.931561,-0.04601 -1.95488,0.06188 -0.02332,0.107896 1.880811,0.733464 1.827275,0.825505 -0.05353,0.09204 -1.879975,-0.975647 -1.947681,-0.901485 -0.06771,0.07416 1.360242,1.601066 1.275605,1.664289 -0.08464,0.06322 -1.011642,-1.469469 -1.111472,-1.455467 -0.09983,0.014 0.224562,2.085989 0.119725,2.08138 -0.104836,-0.0046 -0.274236,-2.097061 -0.383758,-2.114264 -0.109522,-0.0172 -0.610806,1.914365 -0.702399,1.851847 -0.09159,-0.06252 0.951333,-2.05737 0.866414,-2.12645 -0.08492,-0.06908 -1.645701,1.29042 -1.707557,1.208637 -0.06186,-0.08178 1.594091,-1.061455 1.56393,-1.165541 -0.03016,-0.104086 -1.927054,0.161344 -1.932019,0.06029 -0.005,-0.101059 1.90033,-0.107918 1.931887,-0.211559 0.03156,-0.103641 -1.837664,-0.858027 -1.78129,-0.952778 0.05637,-0.09475 1.850835,1.29459 1.925127,1.215291 0.07429,-0.0793 -0.942954,-1.935229 -0.841958,-1.975093 0.100996,-0.03986 0.979244,1.975892 1.081447,1.948745 0.102203,-0.02715 -0.221368,-2.339833 -0.113132,-2.334563 0.108237,0.0053 -0.122643,2.09719 -0.02646,2.137735 0.09618,0.04054 1.031802,-1.855232 1.113067,-1.791224 z"
       transform="translate(0,217.625)"
       inkscape:transform-center-x="0.011304633"
       inkscape:transform-center-y="0.0057375113" />
    <path
       sodipodi:type="star"
       style="fill:#3b7ea1;fill-opacity:1;stroke:#3b7ea1;stroke-width:0.1;stroke-miterlimit:4.19999981;stroke-dasharray:none;stroke-opacity:1"
       id="path5299"
       sodipodi:sides="12"
       sodipodi:cx="39.952084"
       sodipodi:cy="57.149998"
       sodipodi:r1="2.0150065"
       sodipodi:r2="0.020150067"
       sodipodi:arg1="-1.1659045"
       sodipodi:arg2="-0.90410515"
       inkscape:flatsided="false"
       inkscape:rounded="0.05"
       inkscape:randomized="0.1"
       d="m 40.675005,55.249564 c 0.08436,0.0475 -0.629063,1.643168 -0.547277,1.706334 0.08179,0.06317 1.249316,-1.031913 1.30178,-0.947223 0.05246,0.08469 -1.547215,1.139243 -1.52467,1.233255 0.02254,0.09401 1.873804,-0.351445 1.888772,-0.254977 0.01497,0.09647 -1.840816,0.03857 -1.86574,0.136186 -0.02492,0.09762 2.040111,0.886853 1.987714,0.970279 -0.0524,0.08343 -2.041241,-1.071879 -2.100379,-0.996898 -0.05914,0.07498 1.409145,1.731957 1.317776,1.782685 -0.09137,0.05073 -1.034302,-1.617691 -1.118618,-1.570793 -0.08432,0.0469 0.241804,1.653941 0.144955,1.668885 -0.09685,0.01494 0.07908,-1.767958 -0.013,-1.795525 -0.09208,-0.02757 -0.877152,1.757594 -0.973984,1.723906 -0.09683,-0.03369 0.850571,-1.550488 0.768835,-1.610215 -0.08174,-0.05973 -1.63835,1.015094 -1.704781,0.947224 -0.06643,-0.06787 1.742513,-0.87947 1.706106,-0.970996 -0.03641,-0.09153 -2.088508,0.308393 -2.091933,0.209709 -0.0034,-0.09868 2.03999,-0.03955 2.068895,-0.135541 0.0289,-0.09599 -2.037318,-0.880604 -1.987714,-0.970279 0.0496,-0.08967 2.01589,0.885229 2.078653,0.810888 0.06276,-0.07434 -1.390192,-1.716272 -1.317776,-1.782686 0.07242,-0.06641 1.268128,1.567983 1.361915,1.539168 0.09379,-0.02882 -0.240751,-1.656459 -0.144955,-1.668885 0.0958,-0.01243 -0.109903,2.031407 -0.0087,2.057138 0.101188,0.02573 0.689785,-2.129139 0.774145,-2.081639 z"
       transform="translate(0,217.625)"
       inkscape:transform-center-x="0.026937145"
       inkscape:transform-center-y="0.08555452" />
  </g>
</svg>
