<?xml version="1.0" encoding="utf-8" standalone="no"?>
<!DOCTYPE svg PUBLIC "-//W3C//DTD SVG 1.1//EN"
  "http://www.w3.org/Graphics/SVG/1.1/DTD/svg11.dtd">
<!-- Created with matplotlib (http://matplotlib.org/) -->
<svg height="216pt" version="1.1" viewBox="0 0 871 216" width="871pt" xmlns="http://www.w3.org/2000/svg" xmlns:xlink="http://www.w3.org/1999/xlink">
 <defs>
  <style type="text/css">
*{stroke-linecap:butt;stroke-linejoin:round;}
  </style>
 </defs>
 <g id="figure_1">
  <g id="patch_1">
   <path d="M 0 216 
L 871.2 216 
L 871.2 0 
L 0 0 
z
" style="fill:none;"/>
  </g>
  <g id="axes_1">
   <g id="text_1">
    <!-- PSYCH101-D -->
    <defs>
     <path d="M 24.125 37.796875 
L 29.109375 37.796875 
Q 36.078125 37.796875 39.546875 40.546875 
Q 43.015625 43.3125 43.015625 48.578125 
Q 43.015625 53.90625 40.109375 56.4375 
Q 37.203125 58.984375 31 58.984375 
L 24.125 58.984375 
z
M 58.296875 49.125 
Q 58.296875 37.59375 51.09375 31.484375 
Q 43.890625 25.390625 30.609375 25.390625 
L 24.125 25.390625 
L 24.125 0 
L 8.984375 0 
L 8.984375 71.390625 
L 31.78125 71.390625 
Q 44.78125 71.390625 51.53125 65.796875 
Q 58.296875 60.203125 58.296875 49.125 
" id="OpenSans-Bold-50"/>
     <path d="M 51.125 19.828125 
Q 51.125 10.15625 44.15625 4.578125 
Q 37.203125 -0.984375 24.8125 -0.984375 
Q 13.375 -0.984375 4.59375 3.328125 
L 4.59375 17.390625 
Q 11.8125 14.15625 16.8125 12.84375 
Q 21.828125 11.53125 25.984375 11.53125 
Q 30.953125 11.53125 33.609375 13.421875 
Q 36.28125 15.328125 36.28125 19.09375 
Q 36.28125 21.1875 35.109375 22.828125 
Q 33.9375 24.46875 31.65625 25.96875 
Q 29.390625 27.484375 22.40625 30.8125 
Q 15.875 33.890625 12.59375 36.71875 
Q 9.328125 39.546875 7.375 43.3125 
Q 5.421875 47.078125 5.421875 52.09375 
Q 5.421875 61.578125 11.84375 66.984375 
Q 18.265625 72.40625 29.59375 72.40625 
Q 35.15625 72.40625 40.203125 71.09375 
Q 45.265625 69.78125 50.78125 67.390625 
L 45.90625 55.609375 
Q 40.1875 57.953125 36.453125 58.875 
Q 32.71875 59.8125 29.109375 59.8125 
Q 24.8125 59.8125 22.515625 57.8125 
Q 20.21875 55.8125 20.21875 52.59375 
Q 20.21875 50.59375 21.140625 49.09375 
Q 22.078125 47.609375 24.09375 46.21875 
Q 26.125 44.828125 33.6875 41.21875 
Q 43.703125 36.421875 47.40625 31.609375 
Q 51.125 26.8125 51.125 19.828125 
" id="OpenSans-Bold-53"/>
     <path d="M 31.203125 42 
L 46.09375 71.390625 
L 62.40625 71.390625 
L 38.71875 27.78125 
L 38.71875 0 
L 23.6875 0 
L 23.6875 27.296875 
L 0 71.390625 
L 16.40625 71.390625 
z
" id="OpenSans-Bold-59"/>
     <path d="M 39.3125 59.8125 
Q 30.765625 59.8125 26.078125 53.390625 
Q 21.390625 46.96875 21.390625 35.5 
Q 21.390625 11.625 39.3125 11.625 
Q 46.828125 11.625 57.515625 15.375 
L 57.515625 2.6875 
Q 48.734375 -0.984375 37.890625 -0.984375 
Q 22.3125 -0.984375 14.0625 8.46875 
Q 5.8125 17.921875 5.8125 35.59375 
Q 5.8125 46.734375 9.859375 55.109375 
Q 13.921875 63.484375 21.515625 67.9375 
Q 29.109375 72.40625 39.3125 72.40625 
Q 49.703125 72.40625 60.203125 67.390625 
L 55.328125 55.078125 
Q 51.3125 56.984375 47.265625 58.390625 
Q 43.21875 59.8125 39.3125 59.8125 
" id="OpenSans-Bold-43"/>
     <path d="M 67.484375 0 
L 52.390625 0 
L 52.390625 30.8125 
L 24.125 30.8125 
L 24.125 0 
L 8.984375 0 
L 8.984375 71.390625 
L 24.125 71.390625 
L 24.125 43.40625 
L 52.390625 43.40625 
L 52.390625 71.390625 
L 67.484375 71.390625 
z
" id="OpenSans-Bold-48"/>
     <path d="M 41.3125 0 
L 26.21875 0 
L 26.21875 41.3125 
L 26.375 48.09375 
L 26.609375 55.515625 
Q 22.859375 51.765625 21.390625 50.59375 
L 13.1875 44 
L 5.90625 53.078125 
L 28.90625 71.390625 
L 41.3125 71.390625 
z
" id="OpenSans-Bold-31"/>
     <path d="M 53.515625 35.6875 
Q 53.515625 17 47.390625 8 
Q 41.265625 -0.984375 28.515625 -0.984375 
Q 16.15625 -0.984375 9.875 8.296875 
Q 3.609375 17.578125 3.609375 35.6875 
Q 3.609375 54.59375 9.71875 63.546875 
Q 15.828125 72.515625 28.515625 72.515625 
Q 40.875 72.515625 47.1875 63.140625 
Q 53.515625 53.765625 53.515625 35.6875 
M 18.609375 35.6875 
Q 18.609375 22.5625 20.875 16.875 
Q 23.140625 11.1875 28.515625 11.1875 
Q 33.796875 11.1875 36.140625 16.9375 
Q 38.484375 22.703125 38.484375 35.6875 
Q 38.484375 48.828125 36.109375 54.5625 
Q 33.734375 60.296875 28.515625 60.296875 
Q 23.1875 60.296875 20.890625 54.5625 
Q 18.609375 48.828125 18.609375 35.6875 
" id="OpenSans-Bold-30"/>
     <path d="M 2.984375 20.703125 
L 2.984375 32.90625 
L 29.203125 32.90625 
L 29.203125 20.703125 
z
" id="OpenSans-Bold-2d"/>
     <path d="M 68.21875 36.375 
Q 68.21875 18.75 58.171875 9.375 
Q 48.140625 0 29.203125 0 
L 8.984375 0 
L 8.984375 71.390625 
L 31.390625 71.390625 
Q 48.875 71.390625 58.546875 62.15625 
Q 68.21875 52.9375 68.21875 36.375 
M 52.484375 35.984375 
Q 52.484375 58.984375 32.171875 58.984375 
L 24.125 58.984375 
L 24.125 12.5 
L 30.609375 12.5 
Q 52.484375 12.5 52.484375 35.984375 
" id="OpenSans-Bold-44"/>
    </defs>
    <g style="fill:#003262;" transform="translate(592.745 128.6604)scale(0.32 -0.32)">
     <use xlink:href="#OpenSans-Bold-50"/>
     <use x="62.792969" xlink:href="#OpenSans-Bold-53"/>
     <use x="117.871094" xlink:href="#OpenSans-Bold-59"/>
     <use x="180.242188" xlink:href="#OpenSans-Bold-43"/>
     <use x="243.962891" xlink:href="#OpenSans-Bold-48"/>
     <use x="320.476562" xlink:href="#OpenSans-Bold-31"/>
     <use x="377.556641" xlink:href="#OpenSans-Bold-30"/>
     <use x="434.636719" xlink:href="#OpenSans-Bold-31"/>
     <use x="491.716797" xlink:href="#OpenSans-Bold-2d"/>
     <use x="523.894531" xlink:href="#OpenSans-Bold-44"/>
    </g>
   </g>
   <g id="text_2">
    <!-- Data Science for Research Psychology -->
    <defs>
     <path d="M 66.796875 36.375 
Q 66.796875 18.703125 57.203125 9.34375 
Q 47.609375 0 29.59375 0 
L 9.8125 0 
L 9.8125 71.390625 
L 31.6875 71.390625 
Q 48.34375 71.390625 57.5625 62.15625 
Q 66.796875 52.9375 66.796875 36.375 
M 58.015625 36.078125 
Q 58.015625 50.046875 51 57.125 
Q 44 64.203125 30.171875 64.203125 
L 18.109375 64.203125 
L 18.109375 7.171875 
L 28.21875 7.171875 
Q 43.0625 7.171875 50.53125 14.46875 
Q 58.015625 21.78125 58.015625 36.078125 
" id="OpenSans-44"/>
     <path d="M 41.5 0 
L 39.890625 7.625 
L 39.5 7.625 
Q 35.5 2.59375 31.515625 0.796875 
Q 27.546875 -0.984375 21.578125 -0.984375 
Q 13.625 -0.984375 9.109375 3.125 
Q 4.59375 7.234375 4.59375 14.796875 
Q 4.59375 31 30.515625 31.78125 
L 39.59375 32.078125 
L 39.59375 35.40625 
Q 39.59375 41.703125 36.890625 44.703125 
Q 34.1875 47.703125 28.21875 47.703125 
Q 21.53125 47.703125 13.09375 43.609375 
L 10.59375 49.8125 
Q 14.546875 51.953125 19.25 53.171875 
Q 23.96875 54.390625 28.71875 54.390625 
Q 38.28125 54.390625 42.890625 50.140625 
Q 47.515625 45.90625 47.515625 36.53125 
L 47.515625 0 
z
M 23.1875 5.71875 
Q 30.765625 5.71875 35.078125 9.859375 
Q 39.40625 14.015625 39.40625 21.484375 
L 39.40625 26.3125 
L 31.296875 25.984375 
Q 21.625 25.640625 17.359375 22.96875 
Q 13.09375 20.3125 13.09375 14.703125 
Q 13.09375 10.296875 15.75 8 
Q 18.40625 5.71875 23.1875 5.71875 
" id="OpenSans-61"/>
     <path d="M 25.875 5.71875 
Q 28.03125 5.71875 30.03125 6.03125 
Q 32.03125 6.34375 33.203125 6.6875 
L 33.203125 0.484375 
Q 31.890625 -0.140625 29.328125 -0.5625 
Q 26.765625 -0.984375 24.703125 -0.984375 
Q 9.1875 -0.984375 9.1875 15.375 
L 9.1875 47.21875 
L 1.515625 47.21875 
L 1.515625 51.125 
L 9.1875 54.5 
L 12.59375 65.921875 
L 17.28125 65.921875 
L 17.28125 53.515625 
L 32.8125 53.515625 
L 32.8125 47.21875 
L 17.28125 47.21875 
L 17.28125 15.71875 
Q 17.28125 10.890625 19.578125 8.296875 
Q 21.875 5.71875 25.875 5.71875 
" id="OpenSans-74"/>
     <path id="OpenSans-20"/>
     <path d="M 50.09375 19 
Q 50.09375 9.578125 43.25 4.296875 
Q 36.421875 -0.984375 24.703125 -0.984375 
Q 12.015625 -0.984375 5.171875 2.296875 
L 5.171875 10.296875 
Q 9.578125 8.453125 14.75 7.375 
Q 19.921875 6.296875 25 6.296875 
Q 33.296875 6.296875 37.5 9.4375 
Q 41.703125 12.59375 41.703125 18.21875 
Q 41.703125 21.921875 40.203125 24.28125 
Q 38.71875 26.65625 35.21875 28.65625 
Q 31.734375 30.671875 24.609375 33.203125 
Q 14.65625 36.765625 10.375 41.640625 
Q 6.109375 46.53125 6.109375 54.390625 
Q 6.109375 62.640625 12.296875 67.515625 
Q 18.5 72.40625 28.71875 72.40625 
Q 39.359375 72.40625 48.296875 68.5 
L 45.703125 61.28125 
Q 36.859375 64.984375 28.515625 64.984375 
Q 21.921875 64.984375 18.203125 62.15625 
Q 14.5 59.328125 14.5 54.296875 
Q 14.5 50.59375 15.859375 48.21875 
Q 17.234375 45.84375 20.484375 43.859375 
Q 23.734375 41.890625 30.421875 39.5 
Q 41.65625 35.5 45.875 30.90625 
Q 50.09375 26.3125 50.09375 19 
" id="OpenSans-53"/>
     <path d="M 29.984375 -0.984375 
Q 18.359375 -0.984375 11.984375 6.171875 
Q 5.609375 13.328125 5.609375 26.421875 
Q 5.609375 39.84375 12.078125 47.171875 
Q 18.5625 54.5 30.515625 54.5 
Q 34.375 54.5 38.234375 53.65625 
Q 42.09375 52.828125 44.28125 51.703125 
L 41.796875 44.828125 
Q 39.109375 45.90625 35.9375 46.609375 
Q 32.765625 47.3125 30.328125 47.3125 
Q 14.015625 47.3125 14.015625 26.515625 
Q 14.015625 16.65625 17.984375 11.375 
Q 21.96875 6.109375 29.78125 6.109375 
Q 36.46875 6.109375 43.5 8.984375 
L 43.5 1.8125 
Q 38.140625 -0.984375 29.984375 -0.984375 
" id="OpenSans-63"/>
     <path d="M 16.703125 0 
L 8.59375 0 
L 8.59375 53.515625 
L 16.703125 53.515625 
z
M 7.90625 68.015625 
Q 7.90625 70.796875 9.265625 72.09375 
Q 10.640625 73.390625 12.703125 73.390625 
Q 14.65625 73.390625 16.0625 72.0625 
Q 17.484375 70.75 17.484375 68.015625 
Q 17.484375 65.28125 16.0625 63.9375 
Q 14.65625 62.59375 12.703125 62.59375 
Q 10.640625 62.59375 9.265625 63.9375 
Q 7.90625 65.28125 7.90625 68.015625 
" id="OpenSans-69"/>
     <path d="M 31.203125 -0.984375 
Q 19.34375 -0.984375 12.46875 6.25 
Q 5.609375 13.484375 5.609375 26.3125 
Q 5.609375 39.265625 11.984375 46.875 
Q 18.359375 54.5 29.109375 54.5 
Q 39.15625 54.5 45.015625 47.875 
Q 50.875 41.265625 50.875 30.421875 
L 50.875 25.296875 
L 14.015625 25.296875 
Q 14.265625 15.875 18.78125 10.984375 
Q 23.296875 6.109375 31.5 6.109375 
Q 40.140625 6.109375 48.578125 9.71875 
L 48.578125 2.484375 
Q 44.28125 0.640625 40.453125 -0.171875 
Q 36.625 -0.984375 31.203125 -0.984375 
M 29 47.703125 
Q 22.5625 47.703125 18.71875 43.5 
Q 14.890625 39.3125 14.203125 31.890625 
L 42.1875 31.890625 
Q 42.1875 39.546875 38.765625 43.625 
Q 35.359375 47.703125 29 47.703125 
" id="OpenSans-65"/>
     <path d="M 45.21875 0 
L 45.21875 34.625 
Q 45.21875 41.15625 42.234375 44.375 
Q 39.265625 47.609375 32.90625 47.609375 
Q 24.515625 47.609375 20.609375 43.0625 
Q 16.703125 38.53125 16.703125 28.078125 
L 16.703125 0 
L 8.59375 0 
L 8.59375 53.515625 
L 15.1875 53.515625 
L 16.5 46.1875 
L 16.890625 46.1875 
Q 19.390625 50.140625 23.875 52.3125 
Q 28.375 54.5 33.890625 54.5 
Q 43.5625 54.5 48.4375 49.828125 
Q 53.328125 45.171875 53.328125 34.90625 
L 53.328125 0 
z
" id="OpenSans-6e"/>
     <path d="M 32.71875 47.21875 
L 19.09375 47.21875 
L 19.09375 0 
L 10.984375 0 
L 10.984375 47.21875 
L 1.421875 47.21875 
L 1.421875 50.875 
L 10.984375 53.8125 
L 10.984375 56.78125 
Q 10.984375 76.515625 28.21875 76.515625 
Q 32.46875 76.515625 38.1875 74.8125 
L 36.078125 68.3125 
Q 31.390625 69.828125 28.078125 69.828125 
Q 23.484375 69.828125 21.28125 66.765625 
Q 19.09375 63.71875 19.09375 56.984375 
L 19.09375 53.515625 
L 32.71875 53.515625 
z
" id="OpenSans-66"/>
     <path d="M 54.78125 26.8125 
Q 54.78125 13.71875 48.1875 6.359375 
Q 41.609375 -0.984375 29.984375 -0.984375 
Q 22.796875 -0.984375 17.234375 2.390625 
Q 11.671875 5.765625 8.640625 12.0625 
Q 5.609375 18.359375 5.609375 26.8125 
Q 5.609375 39.890625 12.15625 47.1875 
Q 18.703125 54.5 30.328125 54.5 
Q 41.546875 54.5 48.15625 47.015625 
Q 54.78125 39.546875 54.78125 26.8125 
M 14.015625 26.8125 
Q 14.015625 16.546875 18.109375 11.171875 
Q 22.21875 5.8125 30.171875 5.8125 
Q 38.140625 5.8125 42.265625 11.15625 
Q 46.390625 16.5 46.390625 26.8125 
Q 46.390625 37.015625 42.265625 42.3125 
Q 38.140625 47.609375 30.078125 47.609375 
Q 22.125 47.609375 18.0625 42.375 
Q 14.015625 37.15625 14.015625 26.8125 
" id="OpenSans-6f"/>
     <path d="M 33.015625 54.5 
Q 36.578125 54.5 39.40625 53.90625 
L 38.28125 46.390625 
Q 34.96875 47.125 32.421875 47.125 
Q 25.921875 47.125 21.3125 41.84375 
Q 16.703125 36.578125 16.703125 28.71875 
L 16.703125 0 
L 8.59375 0 
L 8.59375 53.515625 
L 15.28125 53.515625 
L 16.21875 43.609375 
L 16.609375 43.609375 
Q 19.578125 48.828125 23.78125 51.65625 
Q 27.984375 54.5 33.015625 54.5 
" id="OpenSans-72"/>
     <path d="M 18.109375 29.6875 
L 18.109375 0 
L 9.8125 0 
L 9.8125 71.390625 
L 29.390625 71.390625 
Q 42.53125 71.390625 48.796875 66.359375 
Q 55.078125 61.328125 55.078125 51.21875 
Q 55.078125 37.0625 40.71875 32.078125 
L 60.109375 0 
L 50.296875 0 
L 33.015625 29.6875 
z
M 18.109375 36.8125 
L 29.5 36.8125 
Q 38.28125 36.8125 42.375 40.296875 
Q 46.484375 43.796875 46.484375 50.78125 
Q 46.484375 57.859375 42.3125 60.984375 
Q 38.140625 64.109375 28.90625 64.109375 
L 18.109375 64.109375 
z
" id="OpenSans-52"/>
     <path d="M 43.109375 14.59375 
Q 43.109375 7.125 37.546875 3.0625 
Q 31.984375 -0.984375 21.921875 -0.984375 
Q 11.28125 -0.984375 5.328125 2.390625 
L 5.328125 9.90625 
Q 9.1875 7.953125 13.59375 6.828125 
Q 18.015625 5.71875 22.125 5.71875 
Q 28.46875 5.71875 31.875 7.734375 
Q 35.296875 9.765625 35.296875 13.921875 
Q 35.296875 17.046875 32.59375 19.265625 
Q 29.890625 21.484375 22.015625 24.515625 
Q 14.546875 27.296875 11.390625 29.375 
Q 8.25 31.453125 6.703125 34.078125 
Q 5.171875 36.71875 5.171875 40.375 
Q 5.171875 46.921875 10.5 50.703125 
Q 15.828125 54.5 25.09375 54.5 
Q 33.734375 54.5 42 50.984375 
L 39.109375 44.390625 
Q 31.0625 47.703125 24.515625 47.703125 
Q 18.75 47.703125 15.8125 45.890625 
Q 12.890625 44.09375 12.890625 40.921875 
Q 12.890625 38.765625 13.984375 37.25 
Q 15.09375 35.75 17.53125 34.375 
Q 19.96875 33.015625 26.90625 30.421875 
Q 36.421875 26.953125 39.765625 23.4375 
Q 43.109375 19.921875 43.109375 14.59375 
" id="OpenSans-73"/>
     <path d="M 45.21875 0 
L 45.21875 34.625 
Q 45.21875 41.15625 42.234375 44.375 
Q 39.265625 47.609375 32.90625 47.609375 
Q 24.46875 47.609375 20.578125 43.015625 
Q 16.703125 38.421875 16.703125 27.984375 
L 16.703125 0 
L 8.59375 0 
L 8.59375 75.984375 
L 16.703125 75.984375 
L 16.703125 52.984375 
Q 16.703125 48.828125 16.3125 46.09375 
L 16.796875 46.09375 
Q 19.1875 49.953125 23.609375 52.171875 
Q 28.03125 54.390625 33.6875 54.390625 
Q 43.5 54.390625 48.40625 49.71875 
Q 53.328125 45.0625 53.328125 34.90625 
L 53.328125 0 
z
" id="OpenSans-68"/>
     <path d="M 55.078125 50.59375 
Q 55.078125 39.75 47.671875 33.90625 
Q 40.28125 28.078125 26.515625 28.078125 
L 18.109375 28.078125 
L 18.109375 0 
L 9.8125 0 
L 9.8125 71.390625 
L 28.328125 71.390625 
Q 55.078125 71.390625 55.078125 50.59375 
M 18.109375 35.203125 
L 25.59375 35.203125 
Q 36.625 35.203125 41.546875 38.765625 
Q 46.484375 42.328125 46.484375 50.203125 
Q 46.484375 57.28125 41.84375 60.734375 
Q 37.203125 64.203125 27.390625 64.203125 
L 18.109375 64.203125 
z
" id="OpenSans-50"/>
     <path d="M 0.09375 53.515625 
L 8.796875 53.515625 
L 20.515625 23 
Q 24.359375 12.546875 25.296875 7.90625 
L 25.6875 7.90625 
Q 26.3125 10.40625 28.34375 16.4375 
Q 30.375 22.46875 41.609375 53.515625 
L 50.296875 53.515625 
L 27.296875 -7.421875 
Q 23.875 -16.453125 19.3125 -20.234375 
Q 14.75 -24.03125 8.109375 -24.03125 
Q 4.390625 -24.03125 0.78125 -23.1875 
L 0.78125 -16.703125 
Q 3.46875 -17.28125 6.78125 -17.28125 
Q 15.140625 -17.28125 18.703125 -7.90625 
L 21.6875 -0.296875 
z
" id="OpenSans-79"/>
     <path d="M 16.703125 0 
L 8.59375 0 
L 8.59375 75.984375 
L 16.703125 75.984375 
z
" id="OpenSans-6c"/>
     <path d="M 52.390625 53.515625 
L 52.390625 48.390625 
L 42.484375 47.21875 
Q 43.84375 45.515625 44.921875 42.75 
Q 46 39.984375 46 36.53125 
Q 46 28.65625 40.625 23.96875 
Q 35.25 19.28125 25.875 19.28125 
Q 23.484375 19.28125 21.390625 19.671875 
Q 16.21875 16.9375 16.21875 12.796875 
Q 16.21875 10.59375 18.015625 9.546875 
Q 19.828125 8.5 24.21875 8.5 
L 33.6875 8.5 
Q 42.390625 8.5 47.046875 4.828125 
Q 51.703125 1.171875 51.703125 -5.8125 
Q 51.703125 -14.703125 44.578125 -19.359375 
Q 37.453125 -24.03125 23.78125 -24.03125 
Q 13.28125 -24.03125 7.59375 -20.125 
Q 1.90625 -16.21875 1.90625 -9.078125 
Q 1.90625 -4.203125 5.03125 -0.625 
Q 8.15625 2.9375 13.8125 4.203125 
Q 11.765625 5.125 10.375 7.078125 
Q 8.984375 9.03125 8.984375 11.625 
Q 8.984375 14.546875 10.546875 16.75 
Q 12.109375 18.953125 15.484375 21 
Q 11.328125 22.703125 8.71875 26.796875 
Q 6.109375 30.90625 6.109375 36.1875 
Q 6.109375 44.96875 11.375 49.734375 
Q 16.65625 54.5 26.3125 54.5 
Q 30.515625 54.5 33.890625 53.515625 
z
M 9.71875 -8.984375 
Q 9.71875 -13.328125 13.375 -15.578125 
Q 17.046875 -17.828125 23.875 -17.828125 
Q 34.078125 -17.828125 38.984375 -14.765625 
Q 43.890625 -11.71875 43.890625 -6.5 
Q 43.890625 -2.15625 41.203125 -0.46875 
Q 38.53125 1.21875 31.109375 1.21875 
L 21.390625 1.21875 
Q 15.875 1.21875 12.796875 -1.40625 
Q 9.71875 -4.046875 9.71875 -8.984375 
M 14.109375 36.375 
Q 14.109375 30.765625 17.28125 27.875 
Q 20.453125 25 26.125 25 
Q 37.984375 25 37.984375 36.53125 
Q 37.984375 48.578125 25.984375 48.578125 
Q 20.265625 48.578125 17.1875 45.5 
Q 14.109375 42.4375 14.109375 36.375 
" id="OpenSans-67"/>
    </defs>
    <g style="fill:#3b7ea1;" transform="translate(223.065 161.2764)scale(0.32 -0.32)">
     <use xlink:href="#OpenSans-44"/>
     <use x="72.900391" xlink:href="#OpenSans-61"/>
     <use x="128.515625" xlink:href="#OpenSans-74"/>
     <use x="163.818359" xlink:href="#OpenSans-61"/>
     <use x="219.433594" xlink:href="#OpenSans-20"/>
     <use x="245.410156" xlink:href="#OpenSans-53"/>
     <use x="300.292969" xlink:href="#OpenSans-63"/>
     <use x="347.900391" xlink:href="#OpenSans-69"/>
     <use x="373.193359" xlink:href="#OpenSans-65"/>
     <use x="429.296875" xlink:href="#OpenSans-6e"/>
     <use x="490.673828" xlink:href="#OpenSans-63"/>
     <use x="538.28125" xlink:href="#OpenSans-65"/>
     <use x="594.384766" xlink:href="#OpenSans-20"/>
     <use x="620.361328" xlink:href="#OpenSans-66"/>
     <use x="654.248047" xlink:href="#OpenSans-6f"/>
     <use x="714.648438" xlink:href="#OpenSans-72"/>
     <use x="755.46875" xlink:href="#OpenSans-20"/>
     <use x="781.445312" xlink:href="#OpenSans-52"/>
     <use x="843.261719" xlink:href="#OpenSans-65"/>
     <use x="899.365234" xlink:href="#OpenSans-73"/>
     <use x="947.070312" xlink:href="#OpenSans-65"/>
     <use x="1003.173828" xlink:href="#OpenSans-61"/>
     <use x="1058.789062" xlink:href="#OpenSans-72"/>
     <use x="1099.578125" xlink:href="#OpenSans-63"/>
     <use x="1147.185547" xlink:href="#OpenSans-68"/>
     <use x="1208.5625" xlink:href="#OpenSans-20"/>
     <use x="1234.539062" xlink:href="#OpenSans-50"/>
     <use x="1294.744141" xlink:href="#OpenSans-73"/>
     <use x="1342.449219" xlink:href="#OpenSans-79"/>
     <use x="1392.839844" xlink:href="#OpenSans-63"/>
     <use x="1440.447266" xlink:href="#OpenSans-68"/>
     <use x="1501.824219" xlink:href="#OpenSans-6f"/>
     <use x="1562.224609" xlink:href="#OpenSans-6c"/>
     <use x="1587.517578" xlink:href="#OpenSans-6f"/>
     <use x="1647.917969" xlink:href="#OpenSans-67"/>
     <use x="1702.703125" xlink:href="#OpenSans-79"/>
    </g>
   </g>
  </g>
 </g>
</svg>
