<?xml version="1.0" encoding="utf-8" standalone="no"?>
<!DOCTYPE svg PUBLIC "-//W3C//DTD SVG 1.1//EN"
  "http://www.w3.org/Graphics/SVG/1.1/DTD/svg11.dtd">
<!-- Created with matplotlib (http://matplotlib.org/) -->
<svg height="432pt" version="1.1" viewBox="0 0 1296 432" width="1296pt" xmlns="http://www.w3.org/2000/svg" xmlns:xlink="http://www.w3.org/1999/xlink">
 <defs>
  <style type="text/css">
*{stroke-linecap:butt;stroke-linejoin:round;}
  </style>
 </defs>
 <g id="figure_1">
  <g id="patch_1">
   <path d="M 0 432 
L 1296 432 
L 1296 0 
L 0 0 
z
" style="fill:#ffffff;"/>
  </g>
  <g id="axes_1">
   <g id="patch_2">
    <path d="M 162 378 
L 1166.4 378 
L 1166.4 51.84 
L 162 51.84 
z
" style="fill:#ffffff;"/>
   </g>
   <g id="patch_3">
    <path clip-path="url(#pb63851f0a9)" d="M 210.921057 378 
L 210.921057 252.553846 
L 312.012656 252.553846 
L 312.012656 168.923077 
L 413.104256 168.923077 
L 413.104256 300.342857 
L 514.195856 300.342857 
L 514.195856 324.237363 
L 615.287456 324.237363 
L 615.287456 312.29011 
L 716.379055 312.29011 
L 716.379055 348.131868 
L 817.470655 348.131868 
L 817.470655 354.105495 
L 918.562255 354.105495 
L 918.562255 378 
L 1019.653855 378 
L 1019.653855 366.052747 
L 1120.745455 366.052747 
L 1120.745455 378 
L 1019.653855 378 
L 1019.653855 378 
L 918.562255 378 
L 918.562255 378 
L 817.470655 378 
L 817.470655 378 
L 716.379055 378 
L 716.379055 378 
L 615.287456 378 
L 615.287456 378 
L 514.195856 378 
L 514.195856 378 
L 413.104256 378 
L 413.104256 378 
L 312.012656 378 
L 312.012656 378 
z
" style="fill:#1f77b4;opacity:0.5;"/>
   </g>
   <g id="patch_4">
    <path clip-path="url(#pb63851f0a9)" d="M 210.921057 378 
L 210.921057 252.553846 
L 312.012656 252.553846 
L 312.012656 168.923077 
L 413.104256 168.923077 
L 413.104256 300.342857 
L 514.195856 300.342857 
L 514.195856 324.237363 
L 615.287456 324.237363 
L 615.287456 312.29011 
L 716.379055 312.29011 
L 716.379055 348.131868 
L 817.470655 348.131868 
L 817.470655 354.105495 
L 918.562255 354.105495 
L 918.562255 378 
L 1019.653855 378 
L 1019.653855 366.052747 
L 1120.745455 366.052747 
L 1120.745455 378 
" style="fill:none;stroke:#1f77b4;stroke-linejoin:miter;stroke-width:3;"/>
   </g>
   <g id="patch_5">
    <path clip-path="url(#pb63851f0a9)" d="M 207.654545 378 
L 207.654545 67.371429 
L 218.018308 67.371429 
L 218.018308 288.395604 
L 228.38207 288.395604 
L 228.38207 318.263736 
L 238.745832 318.263736 
L 238.745832 360.079121 
L 249.109594 360.079121 
L 249.109594 360.079121 
L 259.473356 360.079121 
L 259.473356 372.026374 
L 269.837119 372.026374 
L 269.837119 360.079121 
L 280.200881 360.079121 
L 280.200881 354.105495 
L 290.564643 354.105495 
L 290.564643 366.052747 
L 300.928405 366.052747 
L 300.928405 378 
L 311.292167 378 
L 311.292167 378 
L 321.65593 378 
L 321.65593 366.052747 
L 332.019692 366.052747 
L 332.019692 378 
L 342.383454 378 
L 342.383454 366.052747 
L 352.747216 366.052747 
L 352.747216 378 
L 363.110978 378 
L 363.110978 372.026374 
L 373.474741 372.026374 
L 373.474741 378 
L 383.838503 378 
L 383.838503 378 
L 394.202265 378 
L 394.202265 378 
L 404.566027 378 
L 404.566027 378 
L 414.929789 378 
L 414.929789 372.026374 
L 425.293552 372.026374 
L 425.293552 372.026374 
L 435.657314 372.026374 
L 435.657314 378 
L 425.293552 378 
L 425.293552 378 
L 414.929789 378 
L 414.929789 378 
L 404.566027 378 
L 404.566027 378 
L 394.202265 378 
L 394.202265 378 
L 383.838503 378 
L 383.838503 378 
L 373.474741 378 
L 373.474741 378 
L 363.110978 378 
L 363.110978 378 
L 352.747216 378 
L 352.747216 378 
L 342.383454 378 
L 342.383454 378 
L 332.019692 378 
L 332.019692 378 
L 321.65593 378 
L 321.65593 378 
L 311.292167 378 
L 311.292167 378 
L 300.928405 378 
L 300.928405 378 
L 290.564643 378 
L 290.564643 378 
L 280.200881 378 
L 280.200881 378 
L 269.837119 378 
L 269.837119 378 
L 259.473356 378 
L 259.473356 378 
L 249.109594 378 
L 249.109594 378 
L 238.745832 378 
L 238.745832 378 
L 228.38207 378 
L 228.38207 378 
L 218.018308 378 
L 218.018308 378 
z
" style="fill:#ff7f0e;opacity:0.5;"/>
   </g>
   <g id="patch_6">
    <path clip-path="url(#pb63851f0a9)" d="M 207.654545 378 
L 207.654545 67.371429 
L 218.018308 67.371429 
L 218.018308 288.395604 
L 228.38207 288.395604 
L 228.38207 318.263736 
L 238.745832 318.263736 
L 238.745832 360.079121 
L 249.109594 360.079121 
L 249.109594 360.079121 
L 259.473356 360.079121 
L 259.473356 372.026374 
L 269.837119 372.026374 
L 269.837119 360.079121 
L 280.200881 360.079121 
L 280.200881 354.105495 
L 290.564643 354.105495 
L 290.564643 366.052747 
L 300.928405 366.052747 
L 300.928405 378 
L 311.292167 378 
L 311.292167 378 
L 321.65593 378 
L 321.65593 366.052747 
L 332.019692 366.052747 
L 332.019692 378 
L 342.383454 378 
L 342.383454 366.052747 
L 352.747216 366.052747 
L 352.747216 378 
L 363.110978 378 
L 363.110978 372.026374 
L 373.474741 372.026374 
L 373.474741 378 
L 383.838503 378 
L 383.838503 378 
L 394.202265 378 
L 394.202265 378 
L 404.566027 378 
L 404.566027 378 
L 414.929789 378 
L 414.929789 372.026374 
L 425.293552 372.026374 
L 425.293552 372.026374 
L 435.657314 372.026374 
L 435.657314 378 
" style="fill:none;stroke:#ff7f0e;stroke-linejoin:miter;stroke-width:3;"/>
   </g>
   <g id="matplotlib.axis_1"/>
   <g id="matplotlib.axis_2"/>
   <g id="patch_7">
    <path d="M 162 378 
L 162 51.84 
" style="fill:none;stroke:#000000;stroke-linecap:square;stroke-linejoin:miter;stroke-width:2;"/>
   </g>
   <g id="patch_8">
    <path d="M 162 378 
L 1166.4 378 
" style="fill:none;stroke:#000000;stroke-linecap:square;stroke-linejoin:miter;stroke-width:2;"/>
   </g>
  </g>
 </g>
 <defs>
  <clipPath id="pb63851f0a9">
   <rect height="326.16" width="1004.4" x="162" y="51.84"/>
  </clipPath>
 </defs>
</svg>
