<?xml version="1.0" encoding="utf-8" standalone="no"?>
<!DOCTYPE svg PUBLIC "-//W3C//DTD SVG 1.1//EN"
  "http://www.w3.org/Graphics/SVG/1.1/DTD/svg11.dtd">
<!-- Created with matplotlib (http://matplotlib.org/) -->
<svg height="124pt" version="1.1" viewBox="0 0 204 124" width="204pt" xmlns="http://www.w3.org/2000/svg" xmlns:xlink="http://www.w3.org/1999/xlink">
 <defs>
  <style type="text/css">
*{stroke-linecap:butt;stroke-linejoin:round;}
  </style>
 </defs>
 <g id="figure_1">
  <g id="patch_1">
   <path d="M 0 124.724409 
L 204.094488 124.724409 
L 204.094488 0 
L 0 0 
z
" style="fill:#ffffff;"/>
  </g>
  <g id="axes_1">
   <g id="patch_2">
    <path clip-path="url(#pb00e34a671)" d="M 84.837918 67.830044 
L 78.824726 63.82125 
L 79.826925 62.819051 
L 68.232948 51.225074 
L 79.826925 62.819051 
L 80.829124 61.816852 
z
" style="stroke:#000000;stroke-linejoin:miter;"/>
   </g>
   <g id="patch_3">
    <path clip-path="url(#pb00e34a671)" d="M 124.925862 67.830044 
L 128.934656 61.816852 
L 129.936854 62.819051 
L 141.530831 51.225074 
L 129.936854 62.819051 
L 130.939053 63.82125 
z
" style="stroke:#000000;stroke-linejoin:miter;"/>
   </g>
   <g id="patch_4">
    <path clip-path="url(#pb00e34a671)" d="M 48.188976 59.527559 
C 55.706545 59.527559 62.917225 56.540798 68.232948 51.225074 
C 73.548672 45.909351 76.535433 38.698671 76.535433 31.181102 
C 76.535433 23.663534 73.548672 16.452854 68.232948 11.137131 
C 62.917225 5.821407 55.706545 2.834646 48.188976 2.834646 
C 40.671408 2.834646 33.460728 5.821407 28.145005 11.137131 
C 22.829281 16.452854 19.84252 23.663534 19.84252 31.181102 
C 19.84252 38.698671 22.829281 45.909351 28.145005 51.225074 
C 33.460728 56.540798 40.671408 59.527559 48.188976 59.527559 
z
" style="fill:#fdb515;stroke:#000000;stroke-linejoin:miter;"/>
   </g>
   <g id="patch_5">
    <path clip-path="url(#pb00e34a671)" d="M 161.574803 59.527559 
C 169.092371 59.527559 176.303051 56.540798 181.618775 51.225074 
C 186.934498 45.909351 189.92126 38.698671 189.92126 31.181102 
C 189.92126 23.663534 186.934498 16.452854 181.618775 11.137131 
C 176.303051 5.821407 169.092371 2.834646 161.574803 2.834646 
C 154.057235 2.834646 146.846555 5.821407 141.530831 11.137131 
C 136.215108 16.452854 133.228346 23.663534 133.228346 31.181102 
C 133.228346 38.698671 136.215108 45.909351 141.530831 51.225074 
C 146.846555 56.540798 154.057235 59.527559 161.574803 59.527559 
z
" style="fill:#fdb515;stroke:#000000;stroke-linejoin:miter;"/>
   </g>
   <g id="patch_6">
    <path clip-path="url(#pb00e34a671)" d="M 104.88189 116.220472 
C 112.399458 116.220472 119.610138 113.233711 124.925862 107.917987 
C 130.241585 102.602264 133.228346 95.391584 133.228346 87.874016 
C 133.228346 80.356448 130.241585 73.145767 124.925862 67.830044 
C 119.610138 62.514321 112.399458 59.527559 104.88189 59.527559 
C 97.364322 59.527559 90.153641 62.514321 84.837918 67.830044 
C 79.522195 73.145767 76.535433 80.356448 76.535433 87.874016 
C 76.535433 95.391584 79.522195 102.602264 84.837918 107.917987 
C 90.153641 113.233711 97.364322 116.220472 104.88189 116.220472 
z
" style="fill:#3b7ea1;stroke:#000000;stroke-linejoin:miter;"/>
   </g>
   <g id="matplotlib.axis_1"/>
   <g id="matplotlib.axis_2"/>
   <g id="text_1">
    <!-- $H_0$ -->
    <defs>
     <path d="M 16.890625 72.90625 
L 26.8125 72.90625 
L 21 43.015625 
L 56.78125 43.015625 
L 62.59375 72.90625 
L 72.515625 72.90625 
L 58.296875 0 
L 48.390625 0 
L 55.171875 34.71875 
L 19.390625 34.71875 
L 12.59375 0 
L 2.6875 0 
z
" id="DejaVuSans-Oblique-48"/>
     <path d="M 31.78125 66.40625 
Q 24.171875 66.40625 20.328125 58.90625 
Q 16.5 51.421875 16.5 36.375 
Q 16.5 21.390625 20.328125 13.890625 
Q 24.171875 6.390625 31.78125 6.390625 
Q 39.453125 6.390625 43.28125 13.890625 
Q 47.125 21.390625 47.125 36.375 
Q 47.125 51.421875 43.28125 58.90625 
Q 39.453125 66.40625 31.78125 66.40625 
M 31.78125 74.21875 
Q 44.046875 74.21875 50.515625 64.515625 
Q 56.984375 54.828125 56.984375 36.375 
Q 56.984375 17.96875 50.515625 8.265625 
Q 44.046875 -1.421875 31.78125 -1.421875 
Q 19.53125 -1.421875 13.0625 8.265625 
Q 6.59375 17.96875 6.59375 36.375 
Q 6.59375 54.828125 13.0625 64.515625 
Q 19.53125 74.21875 31.78125 74.21875 
" id="DejaVuSans-30"/>
    </defs>
    <g transform="translate(28.508976 39.493602)scale(0.32 -0.32)">
     <use transform="translate(0 0.09375)" xlink:href="#DejaVuSans-Oblique-48"/>
     <use transform="translate(75.195312 -16.3125)scale(0.7)" xlink:href="#DejaVuSans-30"/>
    </g>
   </g>
   <g id="text_2">
    <!-- $H_1$ -->
    <defs>
     <path d="M 12.40625 8.296875 
L 28.515625 8.296875 
L 28.515625 63.921875 
L 10.984375 60.40625 
L 10.984375 69.390625 
L 28.421875 72.90625 
L 38.28125 72.90625 
L 38.28125 8.296875 
L 54.390625 8.296875 
L 54.390625 0 
L 12.40625 0 
z
" id="DejaVuSans-31"/>
    </defs>
    <g transform="translate(141.894803 39.493602)scale(0.32 -0.32)">
     <use transform="translate(0 0.09375)" xlink:href="#DejaVuSans-Oblique-48"/>
     <use transform="translate(75.195312 -16.3125)scale(0.7)" xlink:href="#DejaVuSans-31"/>
    </g>
   </g>
   <g id="text_3">
    <!-- $\Psi$ -->
    <defs>
     <path d="M 34.46875 0 
Q 34.515625 6.546875 34.46875 15.140625 
Q 24.03125 15.140625 14.84375 25.390625 
Q 5.859375 35.359375 5.609375 52.9375 
L 5.609375 72.90625 
L 16.015625 72.90625 
L 16.015625 52.9375 
Q 16.015625 39.15625 22.359375 31.15625 
Q 27.734375 24.3125 34.46875 23.640625 
L 34.46875 72.90625 
L 44.34375 72.90625 
L 44.34375 23.640625 
Q 51.078125 24.3125 56.453125 31.15625 
Q 62.796875 39.15625 62.796875 52.9375 
L 62.796875 72.90625 
L 73.1875 72.90625 
L 73.1875 52.9375 
Q 72.953125 35.359375 63.96875 25.390625 
Q 54.78125 15.140625 44.34375 15.140625 
Q 44.28125 11.625 44.34375 0 
z
" id="DejaVuSans-3a8"/>
    </defs>
    <g transform="translate(92.24189 96.186516)scale(0.32 -0.32)">
     <use transform="translate(0 0.09375)" xlink:href="#DejaVuSans-3a8"/>
    </g>
   </g>
  </g>
 </g>
 <defs>
  <clipPath id="pb00e34a671">
   <rect height="124.724409" width="204.094488" x="0" y="0"/>
  </clipPath>
 </defs>
</svg>
